<svg xmlns="http://www.w3.org/2000/svg" width="270" height="250"><rect x="0" y="0" width="270" height="250" fill="#fdf8f0"/><g><path stroke="#5a4a3a" stroke-width="1.4" stroke-linecap="round" d="M 40 70 C 45.5,70 62.2,70.2 73.3,70.2 C 84.4,70.2 95.6,70.2 106.7,70.1 C 117.8,70 128.9,69.8 140,69.8 C 151.1,69.8 162.2,70 173.3,70.1 C 184.4,70.1 195.6,70.1 206.7,70.1 C 217.8,70.1 234.4,70 240,70" fill="none" stroke-opacity="0.12"/><path stroke="#5a4a3a" stroke-width="1" stroke-linecap="round" d="M 40,70 C 45.5,69.8 62.2,68.6 73.3,68.8" fill="none"/><path stroke="#5a4a3a" stroke-width="1" stroke-linecap="round" d="M 73.3,68.8 C 84.4,69 95.6,70.8 106.7,70.9" fill="none"/><path stroke="#5a4a3a" stroke-width="1" stroke-linecap="round" d="M 106.7,70.9 C 117.8,71.1 128.9,69.9 140,69.7" fill="none"/><path stroke="#5a4a3a" stroke-width="1.1" stroke-linecap="round" d="M 140,69.7 C 151.1,69.5 162.2,70 173.3,70" fill="none"/><path stroke="#5a4a3a" stroke-width="1" stroke-linecap="round" d="M 173.3,70 C 184.4,70 195.6,69.9 206.7,69.9" fill="none"/><path stroke="#5a4a3a" stroke-width="1" stroke-linecap="round" d="M 206.7,69.9 C 217.8,69.9 234.4,70 240,70" fill="none"/><path stroke="#5a4a3a" stroke-width="0.5" stroke-linecap="round" d="M 40 70 C 45.5,70 62.2,70.2 73.3,70.2 C 84.4,70.2 95.6,69.8 106.7,69.8 C 117.8,69.8 128.9,69.9 140,70 C 151.1,70.1 162.2,70.5 173.3,70.4 C 184.4,70.3 195.6,69.5 206.7,69.4 C 217.8,69.3 234.4,69.9 240,70" fill="none" stroke-opacity="0.35"/></g><g><path stroke="#5a4a3a" stroke-width="1.4" stroke-linecap="round" d="M 40 110 C 45.5,110 62.2,110.2 73.3,110.2 C 84.4,110.2 95.6,110.2 106.7,110.1 C 117.8,110 128.9,109.7 140,109.7 C 151.1,109.7 162.2,110.3 173.3,110.3 C 184.4,110.3 195.6,109.8 206.7,109.8 C 217.8,109.8 234.4,110 240,110" fill="none" stroke-opacity="0.12"/><path stroke="#5a4a3a" stroke-width="1" stroke-linecap="round" d="M 40,110 C 45.5,109.8 62.2,108.6 73.3,108.8" fill="none"/><path stroke="#5a4a3a" stroke-width="1" stroke-linecap="round" d="M 73.3,108.8 C 84.4,109 95.6,111.1 106.7,111.2" fill="none"/><path stroke="#5a4a3a" stroke-width="1" stroke-linecap="round" d="M 106.7,111.2 C 117.8,111.3 128.9,109.5 140,109.3" fill="none"/><path stroke="#5a4a3a" stroke-width="1.1" stroke-linecap="round" d="M 140,109.3 C 151.1,109.1 162.2,110.1 173.3,110.2" fill="none"/><path stroke="#5a4a3a" stroke-width="1.1" stroke-linecap="round" d="M 173.3,110.2 C 184.4,110.3 195.6,110 206.7,110" fill="none"/><path stroke="#5a4a3a" stroke-width="1" stroke-linecap="round" d="M 206.7,110 C 217.8,110 234.4,110 240,110" fill="none"/><path stroke="#5a4a3a" stroke-width="0.5" stroke-linecap="round" d="M 40 110 C 45.5,110 62.2,109.9 73.3,109.9 C 84.4,109.9 95.6,109.9 106.7,109.9 C 117.8,109.9 128.9,109.9 140,110 C 151.1,110.1 162.2,110.4 173.3,110.3 C 184.4,110.2 195.6,109.5 206.7,109.4 C 217.8,109.4 234.4,109.9 240,110" fill="none" stroke-opacity="0.35"/></g><g><path stroke="#5a4a3a" stroke-width="1.4" stroke-linecap="round" d="M 40 150 C 45.5,150 62.2,150.1 73.3,150.1 C 84.4,150.1 95.6,150.1 106.7,150 C 117.8,149.9 128.9,149.6 140,149.7 C 151.1,149.8 162.2,150.4 173.3,150.4 C 184.4,150.4 195.6,149.7 206.7,149.6 C 217.8,149.5 234.4,149.9 240,150" fill="none" stroke-opacity="0.12"/><path stroke="#5a4a3a" stroke-width="1" stroke-linecap="round" d="M 40,150 C 45.5,149.8 62.2,148.9 73.3,149.1" fill="none"/><path stroke="#5a4a3a" stroke-width="1" stroke-linecap="round" d="M 73.3,149.1 C 84.4,149.3 95.6,151.2 106.7,151.2" fill="none"/><path stroke="#5a4a3a" stroke-width="1" stroke-linecap="round" d="M 106.7,151.2 C 117.8,151.2 128.9,149.2 140,149.1" fill="none"/><path stroke="#5a4a3a" stroke-width="1.1" stroke-linecap="round" d="M 140,149.1 C 151.1,149 162.2,150.2 173.3,150.4" fill="none"/><path stroke="#5a4a3a" stroke-width="1.1" stroke-linecap="round" d="M 173.3,150.4 C 184.4,150.6 195.6,150.2 206.7,150.1" fill="none"/><path stroke="#5a4a3a" stroke-width="1" stroke-linecap="round" d="M 206.7,150.1 C 217.8,150 234.4,150 240,150" fill="none"/><path stroke="#5a4a3a" stroke-width="0.5" stroke-linecap="round" d="M 40 150 C 45.5,149.9 62.2,149.6 73.3,149.6 C 84.4,149.6 95.6,150 106.7,150.1 C 117.8,150.2 128.9,150 140,150 C 151.1,150 162.2,150.2 173.3,150.1 C 184.4,150 195.6,149.5 206.7,149.5 C 217.8,149.5 234.4,149.9 240,150" fill="none" stroke-opacity="0.35"/></g><g><path stroke="#5a4a3a" stroke-width="1.4" stroke-linecap="round" d="M 40 190 C 45.5,190 62.2,190 73.3,190 C 84.4,190 95.6,190 106.7,190 C 117.8,190 128.9,189.7 140,189.8 C 151.1,189.9 162.2,190.5 173.3,190.4 C 184.4,190.3 195.6,189.6 206.7,189.5 C 217.8,189.4 234.4,189.9 240,190" fill="none" stroke-opacity="0.12"/><path stroke="#5a4a3a" stroke-width="1" stroke-linecap="round" d="M 40,190 C 45.5,189.9 62.2,189.4 73.3,189.6" fill="none"/><path stroke="#5a4a3a" stroke-width="1" stroke-linecap="round" d="M 73.3,189.6 C 84.4,189.8 95.6,191 106.7,190.9" fill="none"/><path stroke="#5a4a3a" stroke-width="1" stroke-linecap="round" d="M 106.7,190.9 C 117.8,190.8 128.9,189.2 140,189.1" fill="none"/><path stroke="#5a4a3a" stroke-width="1" stroke-linecap="round" d="M 140,189.1 C 151.1,189 162.2,190.3 173.3,190.5" fill="none"/><path stroke="#5a4a3a" stroke-width="1.1" stroke-linecap="round" d="M 173.3,190.5 C 184.4,190.7 195.6,190.2 206.7,190.1" fill="none"/><path stroke="#5a4a3a" stroke-width="1.1" stroke-linecap="round" d="M 206.7,190.1 C 217.8,190 234.4,190 240,190" fill="none"/><path stroke="#5a4a3a" stroke-width="0.5" stroke-linecap="round" d="M 40 190 C 45.5,189.9 62.2,189.3 73.3,189.4 C 84.4,189.5 95.6,190.2 106.7,190.3 C 117.8,190.4 128.9,190 140,189.9 C 151.1,189.8 162.2,190 173.3,190 C 184.4,190 195.6,189.8 206.7,189.8 C 217.8,189.8 234.4,190 240,190" fill="none" stroke-opacity="0.35"/></g><g><path stroke="#5a4a3a" stroke-width="1.4" stroke-linecap="round" d="M 40 230 C 45.5,230 62.2,229.9 73.3,229.9 C 84.4,229.9 95.6,230 106.7,230 C 117.8,230 128.9,229.8 140,229.9 C 151.1,230 162.2,230.4 173.3,230.3 C 184.4,230.2 195.6,229.6 206.7,229.5 C 217.8,229.4 234.4,229.9 240,230" fill="none" stroke-opacity="0.12"/><path stroke="#5a4a3a" stroke-width="1" stroke-linecap="round" d="M 40,230 C 45.5,230 62.2,230 73.3,230.1" fill="none"/><path stroke="#5a4a3a" stroke-width="1" stroke-linecap="round" d="M 73.3,230.1 C 84.4,230.2 95.6,230.5 106.7,230.4" fill="none"/><path stroke="#5a4a3a" stroke-width="1" stroke-linecap="round" d="M 106.7,230.4 C 117.8,230.3 128.9,229.3 140,229.3" fill="none"/><path stroke="#5a4a3a" stroke-width="1" stroke-linecap="round" d="M 140,229.3 C 151.1,229.3 162.2,230.4 173.3,230.5" fill="none"/><path stroke="#5a4a3a" stroke-width="1.1" stroke-linecap="round" d="M 173.3,230.5 C 184.4,230.6 195.6,230.1 206.7,230" fill="none"/><path stroke="#5a4a3a" stroke-width="1.1" stroke-linecap="round" d="M 206.7,230 C 217.8,229.9 234.4,230 240,230" fill="none"/><path stroke="#5a4a3a" stroke-width="0.5" stroke-linecap="round" d="M 40 230 C 45.5,229.9 62.2,229.2 73.3,229.3 C 84.4,229.4 95.6,230.4 106.7,230.5 C 117.8,230.6 128.9,230 140,229.9 C 151.1,229.8 162.2,229.9 173.3,229.9 C 184.4,229.9 195.6,230 206.7,230 C 217.8,230 234.4,230 240,230" fill="none" stroke-opacity="0.35"/></g><g><path stroke="#2a2318" stroke-width="4.2" stroke-linecap="round" d="M 40 70 C 40,74.5 40.3,87.8 40.3,96.7 C 40.3,105.6 39.8,114.4 39.8,123.3 C 39.8,132.2 40,141.1 40.1,150 C 40.2,158.9 40.1,167.8 40.1,176.7 C 40.1,185.6 39.9,194.4 39.9,203.3 C 39.9,212.2 40,225.6 40,230" fill="none" stroke-opacity="0.12"/><path stroke="#2a2318" stroke-width="3.1" stroke-linecap="round" d="M 40,70 C 40.1,74.5 40.5,87.8 40.5,96.7" fill="none"/><path stroke="#2a2318" stroke-width="2.9" stroke-linecap="round" d="M 40.5,96.7 C 40.5,105.6 40,114.4 39.9,123.3" fill="none"/><path stroke="#2a2318" stroke-width="2.9" stroke-linecap="round" d="M 39.9,123.3 C 39.8,132.2 40,141.1 40,150" fill="none"/><path stroke="#2a2318" stroke-width="3" stroke-linecap="round" d="M 40,150 C 40,158.9 39.5,167.8 39.6,176.7" fill="none"/><path stroke="#2a2318" stroke-width="3" stroke-linecap="round" d="M 39.6,176.7 C 39.8,185.6 40.8,194.4 40.9,203.3" fill="none"/><path stroke="#2a2318" stroke-width="2.9" stroke-linecap="round" d="M 40.9,203.3 C 41,212.2 40.1,225.6 40,230" fill="none"/><path stroke="#2a2318" stroke-width="1.5" stroke-linecap="round" d="M 40 70 C 40,74.5 40,87.8 40,96.7 C 40,105.6 39.6,114.4 39.7,123.3 C 39.8,132.2 40.7,141.1 40.6,150 C 40.5,158.9 39.3,167.8 39.3,176.7 C 39.3,185.6 40.3,194.4 40.4,203.3 C 40.5,212.2 40.1,225.6 40,230" fill="none" stroke-opacity="0.35"/></g><g><path stroke="#2a2318" stroke-width="3.8" stroke-linecap="round" d="M 80 70 C 80,74.5 80.2,87.8 80.2,96.7 C 80.2,105.6 80,114.4 80,123.3 C 80,132.2 80,141.1 80,150 C 80,158.9 79.7,167.8 79.8,176.7 C 79.9,185.6 80.4,194.4 80.4,203.3 C 80.4,212.2 80.1,225.6 80,230" fill="none" stroke-opacity="0.12"/><path stroke="#2a2318" stroke-width="2.7" stroke-linecap="round" d="M 80,70 C 80,74.5 79.7,87.8 79.7,96.7" fill="none"/><path stroke="#2a2318" stroke-width="2.6" stroke-linecap="round" d="M 79.7,96.7 C 79.7,105.6 79.7,114.4 79.8,123.3" fill="none"/><path stroke="#2a2318" stroke-width="2.6" stroke-linecap="round" d="M 79.8,123.3 C 79.9,132.2 80.7,141.1 80.6,150" fill="none"/><path stroke="#2a2318" stroke-width="2.7" stroke-linecap="round" d="M 80.6,150 C 80.5,158.9 79.5,167.8 79.4,176.7" fill="none"/><path stroke="#2a2318" stroke-width="2.8" stroke-linecap="round" d="M 79.4,176.7 C 79.3,185.6 80.1,194.4 80.2,203.3" fill="none"/><path stroke="#2a2318" stroke-width="2.9" stroke-linecap="round" d="M 80.2,203.3 C 80.3,212.2 80,225.6 80,230" fill="none"/><path stroke="#2a2318" stroke-width="1.4" stroke-linecap="round" d="M 80 70 C 80.1,74.5 80.8,87.8 80.7,96.7 C 80.6,105.6 79.5,114.4 79.4,123.3 C 79.3,132.2 80.2,141.1 80.3,150 C 80.4,158.9 80.1,167.8 80,176.7 C 79.9,185.6 79.9,194.4 79.9,203.3 C 79.9,212.2 80,225.6 80,230" fill="none" stroke-opacity="0.35"/></g><g><path stroke="#2a2318" stroke-width="3.4" stroke-linecap="round" d="M 120 70 C 120,74.5 120,87.8 120,96.7 C 120,105.6 119.8,114.4 119.8,123.3 C 119.8,132.2 120.3,141.1 120.3,150 C 120.3,158.9 119.7,167.8 119.7,176.7 C 119.7,185.6 120,194.4 120.1,203.3 C 120.1,212.2 120,225.6 120,230" fill="none" stroke-opacity="0.12"/><path stroke="#2a2318" stroke-width="2.5" stroke-linecap="round" d="M 120,70 C 120,74.5 120.1,87.8 120.1,96.7" fill="none"/><path stroke="#2a2318" stroke-width="2.6" stroke-linecap="round" d="M 120.1,96.7 C 120.1,105.6 120.1,114.4 120,123.3" fill="none"/><path stroke="#2a2318" stroke-width="2.5" stroke-linecap="round" d="M 120,123.3 C 119.9,132.2 119.2,141.1 119.4,150" fill="none"/><path stroke="#2a2318" stroke-width="2.4" stroke-linecap="round" d="M 119.4,150 C 119.6,158.9 121.2,167.8 121.1,176.7" fill="none"/><path stroke="#2a2318" stroke-width="2.4" stroke-linecap="round" d="M 121.1,176.7 C 121,185.6 119,194.4 118.8,203.3" fill="none"/><path stroke="#2a2318" stroke-width="2.5" stroke-linecap="round" d="M 118.8,203.3 C 118.6,212.2 119.8,225.6 120,230" fill="none"/><path stroke="#2a2318" stroke-width="1.2" stroke-linecap="round" d="M 120 70 C 120,74.5 119.7,87.8 119.8,96.7 C 119.9,105.6 120.4,114.4 120.4,123.3 C 120.4,132.2 119.6,141.1 119.6,150 C 119.5,158.9 120,167.8 120.1,176.7 C 120.2,185.6 120.1,194.4 120.1,203.3 C 120.1,212.2 120,225.6 120,230" fill="none" stroke-opacity="0.35"/></g><g><path stroke="#2a2318" stroke-width="2.9" stroke-linecap="round" d="M 160 70 C 160,74.5 160.1,87.8 160.1,96.7 C 160.1,105.6 160.1,114.4 160,123.3 C 159.9,132.2 159.7,141.1 159.8,150 C 159.9,158.9 160.4,167.8 160.4,176.7 C 160.4,185.6 159.7,194.4 159.6,203.3 C 159.5,212.2 159.9,225.6 160,230" fill="none" stroke-opacity="0.12"/><path stroke="#2a2318" stroke-width="2.1" stroke-linecap="round" d="M 160,70 C 159.9,74.5 159.1,87.8 159.3,96.7" fill="none"/><path stroke="#2a2318" stroke-width="2.1" stroke-linecap="round" d="M 159.3,96.7 C 159.5,105.6 161.2,114.4 161.1,123.3" fill="none"/><path stroke="#2a2318" stroke-width="2.1" stroke-linecap="round" d="M 161.1,123.3 C 161,132.2 159.1,141.1 159,150" fill="none"/><path stroke="#2a2318" stroke-width="2" stroke-linecap="round" d="M 159,150 C 158.9,158.9 160.2,167.8 160.4,176.7" fill="none"/><path stroke="#2a2318" stroke-width="1.9" stroke-linecap="round" d="M 160.4,176.7 C 160.6,185.6 160.2,194.4 160.1,203.3" fill="none"/><path stroke="#2a2318" stroke-width="2" stroke-linecap="round" d="M 160.1,203.3 C 160,212.2 160,225.6 160,230" fill="none"/><path stroke="#2a2318" stroke-width="1.1" stroke-linecap="round" d="M 160 70 C 159.9,74.5 159.4,87.8 159.4,96.7 C 159.4,105.6 160.1,114.4 160.2,123.3 C 160.3,132.2 160,141.1 160,150 C 160,158.9 160.2,167.8 160.1,176.7 C 160,185.6 159.6,194.4 159.6,203.3 C 159.6,212.2 159.9,225.6 160,230" fill="none" stroke-opacity="0.35"/></g><g><path stroke="#2a2318" stroke-width="2.5" stroke-linecap="round" d="M 200 70 C 199.9,74.5 199.5,87.8 199.6,96.7 C 199.7,105.6 200.5,114.4 200.5,123.3 C 200.5,132.2 199.7,141.1 199.6,150 C 199.5,158.9 200.1,167.8 200.2,176.7 C 200.3,185.6 200,194.4 200,203.3 C 200,212.2 200,225.6 200,230" fill="none" stroke-opacity="0.12"/><path stroke="#2a2318" stroke-width="1.7" stroke-linecap="round" d="M 200,70 C 200,74.5 199.9,87.8 199.8,96.7" fill="none"/><path stroke="#2a2318" stroke-width="1.7" stroke-linecap="round" d="M 199.8,96.7 C 199.7,105.6 199.4,114.4 199.6,123.3" fill="none"/><path stroke="#2a2318" stroke-width="1.8" stroke-linecap="round" d="M 199.6,123.3 C 199.8,132.2 201,141.1 200.9,150" fill="none"/><path stroke="#2a2318" stroke-width="1.9" stroke-linecap="round" d="M 200.9,150 C 200.8,158.9 199.2,167.8 199.1,176.7" fill="none"/><path stroke="#2a2318" stroke-width="1.8" stroke-linecap="round" d="M 199.1,176.7 C 199,185.6 200.3,194.4 200.5,203.3" fill="none"/><path stroke="#2a2318" stroke-width="1.8" stroke-linecap="round" d="M 200.5,203.3 C 200.7,212.2 200.1,225.6 200,230" fill="none"/><path stroke="#2a2318" stroke-width="0.9" stroke-linecap="round" d="M 200 70 C 200,74.5 200.2,87.8 200.2,96.7 C 200.2,105.6 200,114.4 199.9,123.3 C 199.8,132.2 199.7,141.1 199.8,150 C 199.9,158.9 200.4,167.8 200.4,176.7 C 200.4,185.6 199.7,194.4 199.6,203.3 C 199.5,212.2 199.9,225.6 200,230" fill="none" stroke-opacity="0.35"/></g><g><path stroke="#2a2318" stroke-width="2.1" stroke-linecap="round" d="M 240 70 C 240,74.5 239.9,87.8 239.9,96.7 C 239.9,105.6 239.8,114.4 239.9,123.3 C 240,132.2 240.3,141.1 240.3,150 C 240.3,158.9 239.7,167.8 239.7,176.7 C 239.7,185.6 240,194.4 240.1,203.3 C 240.2,212.2 240,225.6 240,230" fill="none" stroke-opacity="0.12"/><path stroke="#2a2318" stroke-width="1.6" stroke-linecap="round" d="M 240,70 C 240.2,74.5 241.4,87.8 241.2,96.7" fill="none"/><path stroke="#2a2318" stroke-width="1.5" stroke-linecap="round" d="M 241.2,96.7 C 241,105.6 239.1,114.4 239,123.3" fill="none"/><path stroke="#2a2318" stroke-width="1.5" stroke-linecap="round" d="M 239,123.3 C 238.9,132.2 240.3,141.1 240.5,150" fill="none"/><path stroke="#2a2318" stroke-width="1.6" stroke-linecap="round" d="M 240.5,150 C 240.7,158.9 240.1,167.8 240,176.7" fill="none"/><path stroke="#2a2318" stroke-width="1.6" stroke-linecap="round" d="M 240,176.7 C 239.9,185.6 240,194.4 240,203.3" fill="none"/><path stroke="#2a2318" stroke-width="1.5" stroke-linecap="round" d="M 240,203.3 C 240,212.2 240,225.6 240,230" fill="none"/><path stroke="#2a2318" stroke-width="0.8" stroke-linecap="round" d="M 240 70 C 240,74.5 240,87.8 240,96.7 C 240,105.6 240.1,114.4 240.1,123.3 C 240.1,132.2 240.2,141.1 240.1,150 C 240,158.9 239.5,167.8 239.6,176.7 C 239.7,185.6 240.6,194.4 240.7,203.3 C 240.8,212.2 240.1,225.6 240,230" fill="none" stroke-opacity="0.35"/></g><text x="135" y="24" text-anchor="middle" dominant-baseline="auto" fill="#2a2318" font-family="Helvetica, Arial, sans-serif" font-size="14" font-weight="bold">A Minor Pentatonic</text><text x="135" y="40" text-anchor="middle" dominant-baseline="auto" fill="#5a4a3a" font-family="Helvetica, Arial, sans-serif" font-size="11">Intervals</text><text x="40" y="58" text-anchor="middle" dominant-baseline="auto" fill="#5a4a3a" font-family="Helvetica, Arial, sans-serif" font-size="11">E</text><text x="80" y="58" text-anchor="middle" dominant-baseline="auto" fill="#5a4a3a" font-family="Helvetica, Arial, sans-serif" font-size="11">A</text><text x="120" y="58" text-anchor="middle" dominant-baseline="auto" fill="#5a4a3a" font-family="Helvetica, Arial, sans-serif" font-size="11">D</text><text x="160" y="58" text-anchor="middle" dominant-baseline="auto" fill="#5a4a3a" font-family="Helvetica, Arial, sans-serif" font-size="11">G</text><text x="200" y="58" text-anchor="middle" dominant-baseline="auto" fill="#5a4a3a" font-family="Helvetica, Arial, sans-serif" font-size="11">B</text><text x="240" y="58" text-anchor="middle" dominant-baseline="auto" fill="#5a4a3a" font-family="Helvetica, Arial, sans-serif" font-size="11">E</text><text x="22" y="90" text-anchor="end" dominant-baseline="middle" fill="#5a4a3a" font-family="Helvetica, Arial, sans-serif" font-size="11">5</text><text x="22" y="130" text-anchor="end" dominant-baseline="middle" fill="#5a4a3a" font-family="Helvetica, Arial, sans-serif" font-size="11">6</text><text x="22" y="170" text-anchor="end" dominant-baseline="middle" fill="#5a4a3a" font-family="Helvetica, Arial, sans-serif" font-size="11">7</text><text x="22" y="210" text-anchor="end" dominant-baseline="middle" fill="#5a4a3a" font-family="Helvetica, Arial, sans-serif" font-size="11">8</text><circle cx="254" cy="90" r="4" fill="#9a8a7a"/><circle cx="254" cy="170" r="4" fill="#9a8a7a"/><circle cx="40" cy="90" r="12" fill="#c0392b"/><text x="40" y="90" text-anchor="middle" dominant-baseline="middle" fill="#fdf8f0" font-family="Helvetica, Arial, sans-serif" font-size="11">R</text><circle cx="40" cy="210" r="12" fill="#2a2318"/><text x="40" y="210" text-anchor="middle" dominant-baseline="middle" fill="#fdf8f0" font-family="Helvetica, Arial, sans-serif" font-size="11">b3</text><circle cx="80" cy="90" r="12" fill="#2a2318"/><text x="80" y="90" text-anchor="middle" dominant-baseline="middle" fill="#fdf8f0" font-family="Helvetica, Arial, sans-serif" font-size="11">4</text><circle cx="80" cy="170" r="12" fill="#2a2318"/><text x="80" y="170" text-anchor="middle" dominant-baseline="middle" fill="#fdf8f0" font-family="Helvetica, Arial, sans-serif" font-size="11">5</text><circle cx="120" cy="90" r="12" fill="#2a2318"/><text x="120" y="90" text-anchor="middle" dominant-baseline="middle" fill="#fdf8f0" font-family="Helvetica, Arial, sans-serif" font-size="11">b7</text><circle cx="120" cy="170" r="12" fill="#c0392b"/><text x="120" y="170" text-anchor="middle" dominant-baseline="middle" fill="#fdf8f0" font-family="Helvetica, Arial, sans-serif" font-size="11">R</text><circle cx="160" cy="90" r="12" fill="#2a2318"/><text x="160" y="90" text-anchor="middle" dominant-baseline="middle" fill="#fdf8f0" font-family="Helvetica, Arial, sans-serif" font-size="11">b3</text><circle cx="160" cy="170" r="12" fill="#2a2318"/><text x="160" y="170" text-anchor="middle" dominant-baseline="middle" fill="#fdf8f0" font-family="Helvetica, Arial, sans-serif" font-size="11">4</text><circle cx="200" cy="90" r="12" fill="#2a2318"/><text x="200" y="90" text-anchor="middle" dominant-baseline="middle" fill="#fdf8f0" font-family="Helvetica, Arial, sans-serif" font-size="11">5</text><circle cx="200" cy="210" r="12" fill="#2a2318"/><text x="200" y="210" text-anchor="middle" dominant-baseline="middle" fill="#fdf8f0" font-family="Helvetica, Arial, sans-serif" font-size="11">b7</text><circle cx="240" cy="90" r="12" fill="#c0392b"/><text x="240" y="90" text-anchor="middle" dominant-baseline="middle" fill="#fdf8f0" font-family="Helvetica, Arial, sans-serif" font-size="11">R</text><circle cx="240" cy="210" r="12" fill="#2a2318"/><text x="240" y="210" text-anchor="middle" dominant-baseline="middle" fill="#fdf8f0" font-family="Helvetica, Arial, sans-serif" font-size="11">b3</text></svg>