<svg xmlns="http://www.w3.org/2000/svg" width="270" height="250"><rect x="0" y="0" width="270" height="250" fill="#ffffff"/><line x1="40" y1="70" x2="240" y2="70" stroke="#666666" stroke-width="1"/><line x1="40" y1="110" x2="240" y2="110" stroke="#666666" stroke-width="1"/><line x1="40" y1="150" x2="240" y2="150" stroke="#666666" stroke-width="1"/><line x1="40" y1="190" x2="240" y2="190" stroke="#666666" stroke-width="1"/><line x1="40" y1="230" x2="240" y2="230" stroke="#666666" stroke-width="1"/><line x1="40" y1="70" x2="40" y2="230" stroke="#333333" stroke-width="3"/><line x1="80" y1="70" x2="80" y2="230" stroke="#333333" stroke-width="2.7"/><line x1="120" y1="70" x2="120" y2="230" stroke="#333333" stroke-width="2.4"/><line x1="160" y1="70" x2="160" y2="230" stroke="#333333" stroke-width="2.1"/><line x1="200" y1="70" x2="200" y2="230" stroke="#333333" stroke-width="1.8"/><line x1="240" y1="70" x2="240" y2="230" stroke="#333333" stroke-width="1.5"/><text x="135" y="24" text-anchor="middle" dominant-baseline="auto" fill="#333333" font-family="Helvetica, Arial, sans-serif" font-size="14" font-weight="bold">A Minor Pentatonic</text><text x="135" y="40" text-anchor="middle" dominant-baseline="auto" fill="#555555" font-family="Helvetica, Arial, sans-serif" font-size="11">Intervals</text><text x="40" y="58" text-anchor="middle" dominant-baseline="auto" fill="#555555" font-family="Helvetica, Arial, sans-serif" font-size="11">E</text><text x="80" y="58" text-anchor="middle" dominant-baseline="auto" fill="#555555" font-family="Helvetica, Arial, sans-serif" font-size="11">A</text><text x="120" y="58" text-anchor="middle" dominant-baseline="auto" fill="#555555" font-family="Helvetica, Arial, sans-serif" font-size="11">D</text><text x="160" y="58" text-anchor="middle" dominant-baseline="auto" fill="#555555" font-family="Helvetica, Arial, sans-serif" font-size="11">G</text><text x="200" y="58" text-anchor="middle" dominant-baseline="auto" fill="#555555" font-family="Helvetica, Arial, sans-serif" font-size="11">B</text><text x="240" y="58" text-anchor="middle" dominant-baseline="auto" fill="#555555" font-family="Helvetica, Arial, sans-serif" font-size="11">E</text><text x="22" y="90" text-anchor="end" dominant-baseline="middle" fill="#555555" font-family="Helvetica, Arial, sans-serif" font-size="11">5</text><text x="22" y="130" text-anchor="end" dominant-baseline="middle" fill="#555555" font-family="Helvetica, Arial, sans-serif" font-size="11">6</text><text x="22" y="170" text-anchor="end" dominant-baseline="middle" fill="#555555" font-family="Helvetica, Arial, sans-serif" font-size="11">7</text><text x="22" y="210" text-anchor="end" dominant-baseline="middle" fill="#555555" font-family="Helvetica, Arial, sans-serif" font-size="11">8</text><circle cx="254" cy="90" r="4" fill="#cccccc"/><circle cx="254" cy="170" r="4" fill="#cccccc"/><circle cx="40" cy="90" r="12" fill="#e63c3c"/><text x="40" y="90" text-anchor="middle" dominant-baseline="middle" fill="#ffffff" font-family="Helvetica, Arial, sans-serif" font-size="11">R</text><circle cx="40" cy="210" r="12" fill="#333333"/><text x="40" y="210" text-anchor="middle" dominant-baseline="middle" fill="#ffffff" font-family="Helvetica, Arial, sans-serif" font-size="11">b3</text><circle cx="80" cy="90" r="12" fill="#333333"/><text x="80" y="90" text-anchor="middle" dominant-baseline="middle" fill="#ffffff" font-family="Helvetica, Arial, sans-serif" font-size="11">4</text><circle cx="80" cy="170" r="12" fill="#333333"/><text x="80" y="170" text-anchor="middle" dominant-baseline="middle" fill="#ffffff" font-family="Helvetica, Arial, sans-serif" font-size="11">5</text><circle cx="120" cy="90" r="12" fill="#333333"/><text x="120" y="90" text-anchor="middle" dominant-baseline="middle" fill="#ffffff" font-family="Helvetica, Arial, sans-serif" font-size="11">b7</text><circle cx="120" cy="170" r="12" fill="#e63c3c"/><text x="120" y="170" text-anchor="middle" dominant-baseline="middle" fill="#ffffff" font-family="Helvetica, Arial, sans-serif" font-size="11">R</text><circle cx="160" cy="90" r="12" fill="#333333"/><text x="160" y="90" text-anchor="middle" dominant-baseline="middle" fill="#ffffff" font-family="Helvetica, Arial, sans-serif" font-size="11">b3</text><circle cx="160" cy="170" r="12" fill="#333333"/><text x="160" y="170" text-anchor="middle" dominant-baseline="middle" fill="#ffffff" font-family="Helvetica, Arial, sans-serif" font-size="11">4</text><circle cx="200" cy="90" r="12" fill="#333333"/><text x="200" y="90" text-anchor="middle" dominant-baseline="middle" fill="#ffffff" font-family="Helvetica, Arial, sans-serif" font-size="11">5</text><circle cx="200" cy="210" r="12" fill="#333333"/><text x="200" y="210" text-anchor="middle" dominant-baseline="middle" fill="#ffffff" font-family="Helvetica, Arial, sans-serif" font-size="11">b7</text><circle cx="240" cy="90" r="12" fill="#e63c3c"/><text x="240" y="90" text-anchor="middle" dominant-baseline="middle" fill="#ffffff" font-family="Helvetica, Arial, sans-serif" font-size="11">R</text><circle cx="240" cy="210" r="12" fill="#333333"/><text x="240" y="210" text-anchor="middle" dominant-baseline="middle" fill="#ffffff" font-family="Helvetica, Arial, sans-serif" font-size="11">b3</text></svg>