<svg xmlns="http://www.w3.org/2000/svg" width="260" height="300"><rect x="0" y="0" width="260" height="300" fill="#fdf8f0"/><g><path stroke="#2a2318" stroke-width="8.4" stroke-linecap="round" d="M 40 73 C 45.5,73 62.2,72.7 73.3,72.7 C 84.4,72.7 95.6,73 106.7,73.1 C 117.8,73.2 128.9,73.1 140,73.1 C 151.1,73 162.2,72.8 173.3,72.8 C 184.4,72.8 195.6,73.1 206.7,73.1 C 217.8,73.1 234.4,73 240,73" fill="none" stroke-opacity="0.12"/><path stroke="#2a2318" stroke-width="6" stroke-linecap="round" d="M 40,73 C 45.5,73.2 62.2,74.2 73.3,74" fill="none"/><path stroke="#2a2318" stroke-width="6" stroke-linecap="round" d="M 73.3,74 C 84.4,73.8 95.6,71.9 106.7,71.9" fill="none"/><path stroke="#2a2318" stroke-width="5.8" stroke-linecap="round" d="M 106.7,71.9 C 117.8,71.9 128.9,73.7 140,73.8" fill="none"/><path stroke="#2a2318" stroke-width="5.5" stroke-linecap="round" d="M 140,73.8 C 151.1,73.9 162.2,72.8 173.3,72.7" fill="none"/><path stroke="#2a2318" stroke-width="5.7" stroke-linecap="round" d="M 173.3,72.7 C 184.4,72.6 195.6,73 206.7,73" fill="none"/><path stroke="#2a2318" stroke-width="6.1" stroke-linecap="round" d="M 206.7,73 C 217.8,73 234.4,73 240,73" fill="none"/><path stroke="#2a2318" stroke-width="3" stroke-linecap="round" d="M 40 73 C 45.5,73 62.2,73 73.3,73 C 84.4,73 95.6,73.2 106.7,73.2 C 117.8,73.2 128.9,72.8 140,72.8 C 151.1,72.8 162.2,72.9 173.3,73 C 184.4,73.1 195.6,73.4 206.7,73.4 C 217.8,73.4 234.4,73.1 240,73" fill="none" stroke-opacity="0.35"/></g><g><path stroke="#5a4a3a" stroke-width="1.4" stroke-linecap="round" d="M 40 110 C 45.5,110 62.2,110.2 73.3,110.2 C 84.4,110.2 95.6,110.2 106.7,110.1 C 117.8,110 128.9,109.7 140,109.7 C 151.1,109.7 162.2,110.3 173.3,110.3 C 184.4,110.3 195.6,109.8 206.7,109.8 C 217.8,109.8 234.4,110 240,110" fill="none" stroke-opacity="0.12"/><path stroke="#5a4a3a" stroke-width="1" stroke-linecap="round" d="M 40,110 C 45.5,109.8 62.2,108.6 73.3,108.8" fill="none"/><path stroke="#5a4a3a" stroke-width="1" stroke-linecap="round" d="M 73.3,108.8 C 84.4,109 95.6,111.1 106.7,111.2" fill="none"/><path stroke="#5a4a3a" stroke-width="1" stroke-linecap="round" d="M 106.7,111.2 C 117.8,111.3 128.9,109.5 140,109.3" fill="none"/><path stroke="#5a4a3a" stroke-width="1.1" stroke-linecap="round" d="M 140,109.3 C 151.1,109.1 162.2,110.1 173.3,110.2" fill="none"/><path stroke="#5a4a3a" stroke-width="1.1" stroke-linecap="round" d="M 173.3,110.2 C 184.4,110.3 195.6,110 206.7,110" fill="none"/><path stroke="#5a4a3a" stroke-width="1" stroke-linecap="round" d="M 206.7,110 C 217.8,110 234.4,110 240,110" fill="none"/><path stroke="#5a4a3a" stroke-width="0.5" stroke-linecap="round" d="M 40 110 C 45.5,110 62.2,109.9 73.3,109.9 C 84.4,109.9 95.6,109.9 106.7,109.9 C 117.8,109.9 128.9,109.9 140,110 C 151.1,110.1 162.2,110.4 173.3,110.3 C 184.4,110.2 195.6,109.5 206.7,109.4 C 217.8,109.4 234.4,109.9 240,110" fill="none" stroke-opacity="0.35"/></g><g><path stroke="#5a4a3a" stroke-width="1.4" stroke-linecap="round" d="M 40 150 C 45.5,150 62.2,150.1 73.3,150.1 C 84.4,150.1 95.6,150.1 106.7,150 C 117.8,149.9 128.9,149.6 140,149.7 C 151.1,149.8 162.2,150.4 173.3,150.4 C 184.4,150.4 195.6,149.7 206.7,149.6 C 217.8,149.5 234.4,149.9 240,150" fill="none" stroke-opacity="0.12"/><path stroke="#5a4a3a" stroke-width="1" stroke-linecap="round" d="M 40,150 C 45.5,149.8 62.2,148.9 73.3,149.1" fill="none"/><path stroke="#5a4a3a" stroke-width="1" stroke-linecap="round" d="M 73.3,149.1 C 84.4,149.3 95.6,151.2 106.7,151.2" fill="none"/><path stroke="#5a4a3a" stroke-width="1" stroke-linecap="round" d="M 106.7,151.2 C 117.8,151.2 128.9,149.2 140,149.1" fill="none"/><path stroke="#5a4a3a" stroke-width="1.1" stroke-linecap="round" d="M 140,149.1 C 151.1,149 162.2,150.2 173.3,150.4" fill="none"/><path stroke="#5a4a3a" stroke-width="1.1" stroke-linecap="round" d="M 173.3,150.4 C 184.4,150.6 195.6,150.2 206.7,150.1" fill="none"/><path stroke="#5a4a3a" stroke-width="1" stroke-linecap="round" d="M 206.7,150.1 C 217.8,150 234.4,150 240,150" fill="none"/><path stroke="#5a4a3a" stroke-width="0.5" stroke-linecap="round" d="M 40 150 C 45.5,149.9 62.2,149.6 73.3,149.6 C 84.4,149.6 95.6,150 106.7,150.1 C 117.8,150.2 128.9,150 140,150 C 151.1,150 162.2,150.2 173.3,150.1 C 184.4,150 195.6,149.5 206.7,149.5 C 217.8,149.5 234.4,149.9 240,150" fill="none" stroke-opacity="0.35"/></g><g><path stroke="#5a4a3a" stroke-width="1.4" stroke-linecap="round" d="M 40 190 C 45.5,190 62.2,190 73.3,190 C 84.4,190 95.6,190 106.7,190 C 117.8,190 128.9,189.7 140,189.8 C 151.1,189.9 162.2,190.5 173.3,190.4 C 184.4,190.3 195.6,189.6 206.7,189.5 C 217.8,189.4 234.4,189.9 240,190" fill="none" stroke-opacity="0.12"/><path stroke="#5a4a3a" stroke-width="1" stroke-linecap="round" d="M 40,190 C 45.5,189.9 62.2,189.4 73.3,189.6" fill="none"/><path stroke="#5a4a3a" stroke-width="1" stroke-linecap="round" d="M 73.3,189.6 C 84.4,189.8 95.6,191 106.7,190.9" fill="none"/><path stroke="#5a4a3a" stroke-width="1" stroke-linecap="round" d="M 106.7,190.9 C 117.8,190.8 128.9,189.2 140,189.1" fill="none"/><path stroke="#5a4a3a" stroke-width="1" stroke-linecap="round" d="M 140,189.1 C 151.1,189 162.2,190.3 173.3,190.5" fill="none"/><path stroke="#5a4a3a" stroke-width="1.1" stroke-linecap="round" d="M 173.3,190.5 C 184.4,190.7 195.6,190.2 206.7,190.1" fill="none"/><path stroke="#5a4a3a" stroke-width="1.1" stroke-linecap="round" d="M 206.7,190.1 C 217.8,190 234.4,190 240,190" fill="none"/><path stroke="#5a4a3a" stroke-width="0.5" stroke-linecap="round" d="M 40 190 C 45.5,189.9 62.2,189.3 73.3,189.4 C 84.4,189.5 95.6,190.2 106.7,190.3 C 117.8,190.4 128.9,190 140,189.9 C 151.1,189.8 162.2,190 173.3,190 C 184.4,190 195.6,189.8 206.7,189.8 C 217.8,189.8 234.4,190 240,190" fill="none" stroke-opacity="0.35"/></g><g><path stroke="#5a4a3a" stroke-width="1.4" stroke-linecap="round" d="M 40 230 C 45.5,230 62.2,229.9 73.3,229.9 C 84.4,229.9 95.6,230 106.7,230 C 117.8,230 128.9,229.8 140,229.9 C 151.1,230 162.2,230.4 173.3,230.3 C 184.4,230.2 195.6,229.6 206.7,229.5 C 217.8,229.4 234.4,229.9 240,230" fill="none" stroke-opacity="0.12"/><path stroke="#5a4a3a" stroke-width="1" stroke-linecap="round" d="M 40,230 C 45.5,230 62.2,230 73.3,230.1" fill="none"/><path stroke="#5a4a3a" stroke-width="1" stroke-linecap="round" d="M 73.3,230.1 C 84.4,230.2 95.6,230.5 106.7,230.4" fill="none"/><path stroke="#5a4a3a" stroke-width="1" stroke-linecap="round" d="M 106.7,230.4 C 117.8,230.3 128.9,229.3 140,229.3" fill="none"/><path stroke="#5a4a3a" stroke-width="1" stroke-linecap="round" d="M 140,229.3 C 151.1,229.3 162.2,230.4 173.3,230.5" fill="none"/><path stroke="#5a4a3a" stroke-width="1.1" stroke-linecap="round" d="M 173.3,230.5 C 184.4,230.6 195.6,230.1 206.7,230" fill="none"/><path stroke="#5a4a3a" stroke-width="1.1" stroke-linecap="round" d="M 206.7,230 C 217.8,229.9 234.4,230 240,230" fill="none"/><path stroke="#5a4a3a" stroke-width="0.5" stroke-linecap="round" d="M 40 230 C 45.5,229.9 62.2,229.2 73.3,229.3 C 84.4,229.4 95.6,230.4 106.7,230.5 C 117.8,230.6 128.9,230 140,229.9 C 151.1,229.8 162.2,229.9 173.3,229.9 C 184.4,229.9 195.6,230 206.7,230 C 217.8,230 234.4,230 240,230" fill="none" stroke-opacity="0.35"/></g><g><path stroke="#5a4a3a" stroke-width="1.4" stroke-linecap="round" d="M 40 270 C 45.5,270 62.2,269.8 73.3,269.8 C 84.4,269.8 95.6,270 106.7,270 C 117.8,270 128.9,270 140,270 C 151.1,270 162.2,270.2 173.3,270.1 C 184.4,270.1 195.6,269.7 206.7,269.7 C 217.8,269.7 234.4,269.9 240,270" fill="none" stroke-opacity="0.12"/><path stroke="#5a4a3a" stroke-width="1" stroke-linecap="round" d="M 40,270 C 45.5,270.1 62.2,270.8 73.3,270.7" fill="none"/><path stroke="#5a4a3a" stroke-width="1" stroke-linecap="round" d="M 73.3,270.7 C 84.4,270.6 95.6,269.8 106.7,269.7" fill="none"/><path stroke="#5a4a3a" stroke-width="0.9" stroke-linecap="round" d="M 106.7,269.7 C 117.8,269.6 128.9,269.7 140,269.8" fill="none"/><path stroke="#5a4a3a" stroke-width="1" stroke-linecap="round" d="M 140,269.8 C 151.1,269.9 162.2,270.4 173.3,270.4" fill="none"/><path stroke="#5a4a3a" stroke-width="1" stroke-linecap="round" d="M 173.3,270.4 C 184.4,270.4 195.6,270.1 206.7,270" fill="none"/><path stroke="#5a4a3a" stroke-width="1.1" stroke-linecap="round" d="M 206.7,270 C 217.8,269.9 234.4,270 240,270" fill="none"/><path stroke="#5a4a3a" stroke-width="0.5" stroke-linecap="round" d="M 40 270 C 45.5,269.9 62.2,269.3 73.3,269.4 C 84.4,269.5 95.6,270.4 106.7,270.5 C 117.8,270.6 128.9,269.9 140,269.8 C 151.1,269.7 162.2,269.8 173.3,269.9 C 184.4,270 195.6,270.3 206.7,270.3 C 217.8,270.3 234.4,270.1 240,270" fill="none" stroke-opacity="0.35"/></g><g><path stroke="#2a2318" stroke-width="4.2" stroke-linecap="round" d="M 40 70 C 40,75.5 39.7,92.2 39.7,103.3 C 39.8,114.4 40.3,125.6 40.3,136.7 C 40.3,147.8 40,158.9 39.9,170 C 39.8,181.1 39.8,192.2 39.9,203.3 C 40,214.4 40.2,225.6 40.2,236.7 C 40.2,247.8 40,264.4 40,270" fill="none" stroke-opacity="0.12"/><path stroke="#2a2318" stroke-width="2.9" stroke-linecap="round" d="M 40,70 C 40.1,75.5 40.8,92.2 40.6,103.3" fill="none"/><path stroke="#2a2318" stroke-width="2.9" stroke-linecap="round" d="M 40.6,103.3 C 40.4,114.4 38.8,125.6 38.9,136.7" fill="none"/><path stroke="#2a2318" stroke-width="3" stroke-linecap="round" d="M 38.9,136.7 C 39,147.8 41.2,158.9 41.2,170" fill="none"/><path stroke="#2a2318" stroke-width="3.2" stroke-linecap="round" d="M 41.2,170 C 41.3,181.1 39.4,192.2 39.2,203.3" fill="none"/><path stroke="#2a2318" stroke-width="3.2" stroke-linecap="round" d="M 39.2,203.3 C 39.1,214.4 40.2,225.6 40.3,236.7" fill="none"/><path stroke="#2a2318" stroke-width="3" stroke-linecap="round" d="M 40.3,236.7 C 40.4,247.8 40,264.4 40,270" fill="none"/><path stroke="#2a2318" stroke-width="1.5" stroke-linecap="round" d="M 40 70 C 40.1,75.5 40.4,92.2 40.4,103.3 C 40.4,114.4 40,125.6 39.9,136.7 C 39.8,147.8 39.8,158.9 39.8,170 C 39.8,181.1 40.2,192.2 40.2,203.3 C 40.3,214.4 40.1,225.6 40.1,236.7 C 40.1,247.8 40,264.4 40,270" fill="none" stroke-opacity="0.35"/></g><g><path stroke="#2a2318" stroke-width="3.8" stroke-linecap="round" d="M 80 70 C 80,75.5 80.3,92.2 80.2,103.3 C 80.1,114.4 79.6,125.6 79.6,136.7 C 79.6,147.8 80.4,158.9 80.4,170 C 80.4,181.1 79.8,192.2 79.7,203.3 C 79.7,214.4 80,225.6 80.1,236.7 C 80.1,247.8 80,264.4 80,270" fill="none" stroke-opacity="0.12"/><path stroke="#2a2318" stroke-width="2.9" stroke-linecap="round" d="M 80,70 C 80.2,75.5 81.1,92.2 81,103.3" fill="none"/><path stroke="#2a2318" stroke-width="2.7" stroke-linecap="round" d="M 81,103.3 C 80.9,114.4 79.8,125.6 79.6,136.7" fill="none"/><path stroke="#2a2318" stroke-width="2.6" stroke-linecap="round" d="M 79.6,136.7 C 79.4,147.8 79.8,158.9 79.9,170" fill="none"/><path stroke="#2a2318" stroke-width="2.7" stroke-linecap="round" d="M 79.9,170 C 80,181.1 80.3,192.2 80.3,203.3" fill="none"/><path stroke="#2a2318" stroke-width="2.8" stroke-linecap="round" d="M 80.3,203.3 C 80.3,214.4 80,225.6 80,236.7" fill="none"/><path stroke="#2a2318" stroke-width="2.7" stroke-linecap="round" d="M 80,236.7 C 80,247.8 80,264.4 80,270" fill="none"/><path stroke="#2a2318" stroke-width="1.4" stroke-linecap="round" d="M 80 70 C 80,75.5 80,92.2 80,103.3 C 80,114.4 79.8,125.6 79.9,136.7 C 80,147.8 80.5,158.9 80.4,170 C 80.3,181.1 79.3,192.2 79.3,203.3 C 79.3,214.4 80.6,225.6 80.7,236.7 C 80.8,247.8 80.1,264.4 80,270" fill="none" stroke-opacity="0.35"/></g><g><path stroke="#2a2318" stroke-width="3.4" stroke-linecap="round" d="M 120 70 C 120.1,75.5 120.4,92.2 120.4,103.3 C 120.4,114.4 119.9,125.6 119.8,136.7 C 119.7,147.8 120,158.9 120,170 C 120,181.1 120.1,192.2 120.1,203.3 C 120.1,214.4 120.1,225.6 120.1,236.7 C 120.1,247.8 120,264.4 120,270" fill="none" stroke-opacity="0.12"/><path stroke="#2a2318" stroke-width="2.4" stroke-linecap="round" d="M 120,70 C 119.9,75.5 119.1,92.2 119.2,103.3" fill="none"/><path stroke="#2a2318" stroke-width="2.4" stroke-linecap="round" d="M 119.2,103.3 C 119.3,114.4 120.7,125.6 120.8,136.7" fill="none"/><path stroke="#2a2318" stroke-width="2.3" stroke-linecap="round" d="M 120.8,136.7 C 120.9,147.8 119.7,158.9 119.6,170" fill="none"/><path stroke="#2a2318" stroke-width="2.2" stroke-linecap="round" d="M 119.6,170 C 119.5,181.1 119.9,192.2 120,203.3" fill="none"/><path stroke="#2a2318" stroke-width="2.4" stroke-linecap="round" d="M 120,203.3 C 120.1,214.4 120.2,225.6 120.2,236.7" fill="none"/><path stroke="#2a2318" stroke-width="2.5" stroke-linecap="round" d="M 120.2,236.7 C 120.2,247.8 120,264.4 120,270" fill="none"/><path stroke="#2a2318" stroke-width="1.2" stroke-linecap="round" d="M 120 70 C 120,75.5 120.4,92.2 120.3,103.3 C 120.2,114.4 119.5,125.6 119.5,136.7 C 119.5,147.8 120.3,158.9 120.4,170 C 120.5,181.1 120,192.2 119.9,203.3 C 119.8,214.4 119.7,225.6 119.7,236.7 C 119.7,247.8 120,264.4 120,270" fill="none" stroke-opacity="0.35"/></g><g><path stroke="#2a2318" stroke-width="2.9" stroke-linecap="round" d="M 160 70 C 159.9,75.5 159.7,92.2 159.7,103.3 C 159.7,114.4 160.2,125.6 160.2,136.7 C 160.2,147.8 159.9,158.9 159.9,170 C 159.9,181.1 159.9,192.2 159.9,203.3 C 159.9,214.4 160.1,225.6 160.1,236.7 C 160.1,247.8 160,264.4 160,270" fill="none" stroke-opacity="0.12"/><path stroke="#2a2318" stroke-width="2.1" stroke-linecap="round" d="M 160,70 C 159.9,75.5 159.5,92.2 159.5,103.3" fill="none"/><path stroke="#2a2318" stroke-width="2.2" stroke-linecap="round" d="M 159.5,103.3 C 159.5,114.4 159.9,125.6 160,136.7" fill="none"/><path stroke="#2a2318" stroke-width="2.2" stroke-linecap="round" d="M 160,136.7 C 160.1,147.8 159.9,158.9 160,170" fill="none"/><path stroke="#2a2318" stroke-width="2.1" stroke-linecap="round" d="M 160,170 C 160.1,181.1 160.7,192.2 160.5,203.3" fill="none"/><path stroke="#2a2318" stroke-width="2.1" stroke-linecap="round" d="M 160.5,203.3 C 160.3,214.4 159.1,225.6 159,236.7" fill="none"/><path stroke="#2a2318" stroke-width="2.2" stroke-linecap="round" d="M 159,236.7 C 158.9,247.8 159.8,264.4 160,270" fill="none"/><path stroke="#2a2318" stroke-width="1.1" stroke-linecap="round" d="M 160 70 C 160,75.5 159.8,92.2 159.9,103.3 C 160,114.4 160.5,125.6 160.4,136.7 C 160.3,147.8 159.3,158.9 159.3,170 C 159.4,181.1 160.6,192.2 160.7,203.3 C 160.8,214.4 159.7,225.6 159.6,236.7 C 159.5,247.8 159.9,264.4 160,270" fill="none" stroke-opacity="0.35"/></g><g><path stroke="#2a2318" stroke-width="2.5" stroke-linecap="round" d="M 200 70 C 200,75.5 199.9,92.2 199.9,103.3 C 199.9,114.4 200,125.6 200,136.7 C 200,147.8 199.8,158.9 199.9,170 C 200,181.1 200.4,192.2 200.3,203.3 C 200.3,214.4 199.7,225.6 199.6,236.7 C 199.5,247.8 199.9,264.4 200,270" fill="none" stroke-opacity="0.12"/><path stroke="#2a2318" stroke-width="1.8" stroke-linecap="round" d="M 200,70 C 200.1,75.5 200.3,92.2 200.3,103.3" fill="none"/><path stroke="#2a2318" stroke-width="1.8" stroke-linecap="round" d="M 200.3,103.3 C 200.3,114.4 200.3,125.6 200.2,136.7" fill="none"/><path stroke="#2a2318" stroke-width="1.9" stroke-linecap="round" d="M 200.2,136.7 C 200,147.8 199.3,158.9 199.4,170" fill="none"/><path stroke="#2a2318" stroke-width="1.8" stroke-linecap="round" d="M 199.4,170 C 199.5,181.1 200.4,192.2 200.5,203.3" fill="none"/><path stroke="#2a2318" stroke-width="1.7" stroke-linecap="round" d="M 200.5,203.3 C 200.6,214.4 200.1,225.6 200,236.7" fill="none"/><path stroke="#2a2318" stroke-width="1.7" stroke-linecap="round" d="M 200,236.7 C 199.9,247.8 200,264.4 200,270" fill="none"/><path stroke="#2a2318" stroke-width="0.9" stroke-linecap="round" d="M 200 70 C 199.9,75.5 199.2,92.2 199.3,103.3 C 199.4,114.4 200.4,125.6 200.5,136.7 C 200.6,147.8 199.9,158.9 199.8,170 C 199.7,181.1 199.9,192.2 199.9,203.3 C 199.9,214.4 200.1,225.6 200.1,236.7 C 200.1,247.8 200,264.4 200,270" fill="none" stroke-opacity="0.35"/></g><g><path stroke="#2a2318" stroke-width="2.1" stroke-linecap="round" d="M 240 70 C 240,75.5 240,92.2 240,103.3 C 240,114.4 240.3,125.6 240.2,136.7 C 240.1,147.8 239.7,158.9 239.7,170 C 239.7,181.1 240.3,192.2 240.3,203.3 C 240.4,214.4 240.1,225.6 240,236.7 C 239.9,247.8 240,264.4 240,270" fill="none" stroke-opacity="0.12"/><path stroke="#2a2318" stroke-width="1.4" stroke-linecap="round" d="M 240,70 C 240,75.5 239.9,92.2 239.9,103.3" fill="none"/><path stroke="#2a2318" stroke-width="1.4" stroke-linecap="round" d="M 239.9,103.3 C 239.9,114.4 239.8,125.6 239.9,136.7" fill="none"/><path stroke="#2a2318" stroke-width="1.4" stroke-linecap="round" d="M 239.9,136.7 C 240,147.8 240.9,158.9 240.7,170" fill="none"/><path stroke="#2a2318" stroke-width="1.5" stroke-linecap="round" d="M 240.7,170 C 240.5,181.1 238.8,192.2 238.9,203.3" fill="none"/><path stroke="#2a2318" stroke-width="1.5" stroke-linecap="round" d="M 238.9,203.3 C 239,214.4 241,225.6 241.2,236.7" fill="none"/><path stroke="#2a2318" stroke-width="1.5" stroke-linecap="round" d="M 241.2,236.7 C 241.4,247.8 240.2,264.4 240,270" fill="none"/><path stroke="#2a2318" stroke-width="0.8" stroke-linecap="round" d="M 240 70 C 240.1,75.5 240.4,92.2 240.3,103.3 C 240.2,114.4 239.5,125.6 239.5,136.7 C 239.5,147.8 240.3,158.9 240.4,170 C 240.5,181.1 240,192.2 239.9,203.3 C 239.8,214.4 239.9,225.6 239.9,236.7 C 239.9,247.8 240,264.4 240,270" fill="none" stroke-opacity="0.35"/></g><text x="130" y="24" text-anchor="middle" dominant-baseline="auto" fill="#2a2318" font-family="Helvetica, Arial, sans-serif" font-size="14" font-weight="bold">A Minor</text><text x="130" y="40" text-anchor="middle" dominant-baseline="auto" fill="#5a4a3a" font-family="Helvetica, Arial, sans-serif" font-size="11">Intervals</text><text x="40" y="52" text-anchor="middle" dominant-baseline="middle" fill="#7a6a5a" font-family="Helvetica, Arial, sans-serif" font-size="13">×</text><circle cx="80" cy="52" r="12" fill="#c0392b"/><text x="80" y="52" text-anchor="middle" dominant-baseline="middle" fill="#fdf8f0" font-family="Helvetica, Arial, sans-serif" font-size="11">R</text><circle cx="240" cy="52" r="12" fill="#2a2318"/><text x="240" y="52" text-anchor="middle" dominant-baseline="middle" fill="#fdf8f0" font-family="Helvetica, Arial, sans-serif" font-size="11">5</text><circle cx="120" cy="130" r="12" fill="#2a2318"/><text x="120" y="130" text-anchor="middle" dominant-baseline="middle" fill="#fdf8f0" font-family="Helvetica, Arial, sans-serif" font-size="11">5</text><circle cx="160" cy="130" r="12" fill="#c0392b"/><text x="160" y="130" text-anchor="middle" dominant-baseline="middle" fill="#fdf8f0" font-family="Helvetica, Arial, sans-serif" font-size="11">R</text><circle cx="200" cy="90" r="12" fill="#2a2318"/><text x="200" y="90" text-anchor="middle" dominant-baseline="middle" fill="#fdf8f0" font-family="Helvetica, Arial, sans-serif" font-size="11">b3</text></svg>