<svg xmlns="http://www.w3.org/2000/svg" width="180" height="300"><rect x="0" y="0" width="180" height="300" fill="#fdf8f0"/><g><path stroke="#2a2318" stroke-width="5.6" stroke-linecap="round" d="M 40 72 C 45,72 60,71.9 70,71.9 C 80,72 90,72.4 100,72.3 C 110,72.2 120,71.5 130,71.5 C 140,71.5 155,71.9 160,72" fill="none" stroke-opacity="0.12"/><path stroke="#2a2318" stroke-width="4.3" stroke-linecap="round" d="M 40,72 C 45,71.8 60,70.9 70,71" fill="none"/><path stroke="#2a2318" stroke-width="4.1" stroke-linecap="round" d="M 70,71 C 80,71.1 90,72.5 100,72.7" fill="none"/><path stroke="#2a2318" stroke-width="4" stroke-linecap="round" d="M 100,72.7 C 110,72.9 120,72 130,71.9" fill="none"/><path stroke="#2a2318" stroke-width="4.1" stroke-linecap="round" d="M 130,71.9 C 140,71.8 155,72 160,72" fill="none"/><path stroke="#2a2318" stroke-width="2" stroke-linecap="round" d="M 40 72 C 45,72 60,71.9 70,71.9 C 80,71.9 90,72 100,72 C 110,72 120,71.9 130,71.9 C 140,71.9 155,72 160,72" fill="none" stroke-opacity="0.35"/></g><g><path stroke="#5a4a3a" stroke-width="1.4" stroke-linecap="round" d="M 40 110 C 45,110 60,110.3 70,110.2 C 80,110.1 90,109.6 100,109.6 C 110,109.6 120,110.2 130,110.3 C 140,110.4 155,110 160,110" fill="none" stroke-opacity="0.12"/><path stroke="#5a4a3a" stroke-width="0.9" stroke-linecap="round" d="M 40,110 C 45,110.2 60,111 70,110.9" fill="none"/><path stroke="#5a4a3a" stroke-width="1" stroke-linecap="round" d="M 70,110.9 C 80,110.8 90,109.8 100,109.6" fill="none"/><path stroke="#5a4a3a" stroke-width="1" stroke-linecap="round" d="M 100,109.6 C 110,109.4 120,109.8 130,109.9" fill="none"/><path stroke="#5a4a3a" stroke-width="1" stroke-linecap="round" d="M 130,109.9 C 140,110 155,110 160,110" fill="none"/><path stroke="#5a4a3a" stroke-width="0.5" stroke-linecap="round" d="M 40 110 C 45,110 60,110 70,110 C 80,110 90,109.7 100,109.8 C 110,109.9 120,110.5 130,110.5 C 140,110.5 155,110.1 160,110" fill="none" stroke-opacity="0.35"/></g><g><path stroke="#5a4a3a" stroke-width="1.4" stroke-linecap="round" d="M 40 150 C 45,150 60,150.3 70,150.2 C 80,150.1 90,149.5 100,149.6 C 110,149.7 120,150.4 130,150.5 C 140,150.6 155,150.1 160,150" fill="none" stroke-opacity="0.12"/><path stroke="#5a4a3a" stroke-width="0.9" stroke-linecap="round" d="M 40,150 C 45,150.2 60,151.1 70,151" fill="none"/><path stroke="#5a4a3a" stroke-width="1" stroke-linecap="round" d="M 70,151 C 80,150.9 90,149.7 100,149.5" fill="none"/><path stroke="#5a4a3a" stroke-width="1" stroke-linecap="round" d="M 100,149.5 C 110,149.3 120,149.8 130,149.9" fill="none"/><path stroke="#5a4a3a" stroke-width="1" stroke-linecap="round" d="M 130,149.9 C 140,150 155,150 160,150" fill="none"/><path stroke="#5a4a3a" stroke-width="0.5" stroke-linecap="round" d="M 40 150 C 45,150 60,150 70,150 C 80,150 90,149.9 100,150 C 110,150.1 120,150.3 130,150.3 C 140,150.3 155,150.1 160,150" fill="none" stroke-opacity="0.35"/></g><g><path stroke="#5a4a3a" stroke-width="1.4" stroke-linecap="round" d="M 40 190 C 45,190 60,190.2 70,190.1 C 80,190 90,189.6 100,189.7 C 110,189.8 120,190.4 130,190.5 C 140,190.6 155,190.1 160,190" fill="none" stroke-opacity="0.12"/><path stroke="#5a4a3a" stroke-width="0.9" stroke-linecap="round" d="M 40,190 C 45,190.1 60,190.9 70,190.8" fill="none"/><path stroke="#5a4a3a" stroke-width="1" stroke-linecap="round" d="M 70,190.8 C 80,190.7 90,189.5 100,189.4" fill="none"/><path stroke="#5a4a3a" stroke-width="1" stroke-linecap="round" d="M 100,189.4 C 110,189.3 120,189.9 130,190" fill="none"/><path stroke="#5a4a3a" stroke-width="1" stroke-linecap="round" d="M 130,190 C 140,190.1 155,190 160,190" fill="none"/><path stroke="#5a4a3a" stroke-width="0.5" stroke-linecap="round" d="M 40 190 C 45,190 60,190.1 70,190.1 C 80,190.1 90,190 100,190 C 110,190 120,190 130,190 C 140,190 155,190 160,190" fill="none" stroke-opacity="0.35"/></g><g><path stroke="#5a4a3a" stroke-width="1.4" stroke-linecap="round" d="M 40 230 C 45,230 60,230 70,230 C 80,230 90,229.7 100,229.8 C 110,229.9 120,230.4 130,230.4 C 140,230.4 155,230.1 160,230" fill="none" stroke-opacity="0.12"/><path stroke="#5a4a3a" stroke-width="0.9" stroke-linecap="round" d="M 40,230 C 45,230.1 60,230.5 70,230.4" fill="none"/><path stroke="#5a4a3a" stroke-width="1" stroke-linecap="round" d="M 70,230.4 C 80,230.3 90,229.6 100,229.5" fill="none"/><path stroke="#5a4a3a" stroke-width="1" stroke-linecap="round" d="M 100,229.5 C 110,229.4 120,230 130,230.1" fill="none"/><path stroke="#5a4a3a" stroke-width="1" stroke-linecap="round" d="M 130,230.1 C 140,230.2 155,230 160,230" fill="none"/><path stroke="#5a4a3a" stroke-width="0.5" stroke-linecap="round" d="M 40 230 C 45,230.1 60,230.3 70,230.3 C 80,230.3 90,230.2 100,230.1 C 110,230 120,229.8 130,229.8 C 140,229.8 155,230 160,230" fill="none" stroke-opacity="0.35"/></g><g><path stroke="#5a4a3a" stroke-width="1.4" stroke-linecap="round" d="M 40 270 C 45,270 60,270 70,270 C 80,270 90,270 100,270 C 110,270 120,270.2 130,270.2 C 140,270.2 155,270 160,270" fill="none" stroke-opacity="0.12"/><path stroke="#5a4a3a" stroke-width="1" stroke-linecap="round" d="M 40,270 C 45,270 60,269.8 70,269.8" fill="none"/><path stroke="#5a4a3a" stroke-width="1" stroke-linecap="round" d="M 70,269.8 C 80,269.8 90,269.8 100,269.8" fill="none"/><path stroke="#5a4a3a" stroke-width="1" stroke-linecap="round" d="M 100,269.8 C 110,269.9 120,270.1 130,270.1" fill="none"/><path stroke="#5a4a3a" stroke-width="1" stroke-linecap="round" d="M 130,270.1 C 140,270.1 155,270 160,270" fill="none"/><path stroke="#5a4a3a" stroke-width="0.5" stroke-linecap="round" d="M 40 270 C 45,270.1 60,270.3 70,270.3 C 80,270.3 90,270.1 100,270 C 110,269.9 120,269.7 130,269.7 C 140,269.7 155,269.9 160,270" fill="none" stroke-opacity="0.35"/></g><g><path stroke="#2a2318" stroke-width="4.2" stroke-linecap="round" d="M 40 70 C 40,75.5 39.7,92.2 39.7,103.3 C 39.8,114.4 40.3,125.6 40.3,136.7 C 40.3,147.8 40,158.9 39.9,170 C 39.8,181.1 39.8,192.2 39.9,203.3 C 40,214.4 40.2,225.6 40.2,236.7 C 40.2,247.8 40,264.4 40,270" fill="none" stroke-opacity="0.12"/><path stroke="#2a2318" stroke-width="2.9" stroke-linecap="round" d="M 40,70 C 40.1,75.5 40.8,92.2 40.6,103.3" fill="none"/><path stroke="#2a2318" stroke-width="2.9" stroke-linecap="round" d="M 40.6,103.3 C 40.4,114.4 38.8,125.6 38.9,136.7" fill="none"/><path stroke="#2a2318" stroke-width="3" stroke-linecap="round" d="M 38.9,136.7 C 39,147.8 41.2,158.9 41.2,170" fill="none"/><path stroke="#2a2318" stroke-width="3.2" stroke-linecap="round" d="M 41.2,170 C 41.3,181.1 39.4,192.2 39.2,203.3" fill="none"/><path stroke="#2a2318" stroke-width="3.2" stroke-linecap="round" d="M 39.2,203.3 C 39.1,214.4 40.2,225.6 40.3,236.7" fill="none"/><path stroke="#2a2318" stroke-width="3" stroke-linecap="round" d="M 40.3,236.7 C 40.4,247.8 40,264.4 40,270" fill="none"/><path stroke="#2a2318" stroke-width="1.5" stroke-linecap="round" d="M 40 70 C 40.1,75.5 40.4,92.2 40.4,103.3 C 40.4,114.4 40,125.6 39.9,136.7 C 39.8,147.8 39.8,158.9 39.8,170 C 39.8,181.1 40.2,192.2 40.2,203.3 C 40.3,214.4 40.1,225.6 40.1,236.7 C 40.1,247.8 40,264.4 40,270" fill="none" stroke-opacity="0.35"/></g><g><path stroke="#2a2318" stroke-width="3.5" stroke-linecap="round" d="M 80 70 C 80,75.5 80.3,92.2 80.2,103.3 C 80.1,114.4 79.6,125.6 79.6,136.7 C 79.6,147.8 80.4,158.9 80.4,170 C 80.4,181.1 79.8,192.2 79.7,203.3 C 79.7,214.4 80,225.6 80.1,236.7 C 80.1,247.8 80,264.4 80,270" fill="none" stroke-opacity="0.12"/><path stroke="#2a2318" stroke-width="2.7" stroke-linecap="round" d="M 80,70 C 80.2,75.5 81.1,92.2 81,103.3" fill="none"/><path stroke="#2a2318" stroke-width="2.5" stroke-linecap="round" d="M 81,103.3 C 80.9,114.4 79.8,125.6 79.6,136.7" fill="none"/><path stroke="#2a2318" stroke-width="2.4" stroke-linecap="round" d="M 79.6,136.7 C 79.4,147.8 79.8,158.9 79.9,170" fill="none"/><path stroke="#2a2318" stroke-width="2.5" stroke-linecap="round" d="M 79.9,170 C 80,181.1 80.3,192.2 80.3,203.3" fill="none"/><path stroke="#2a2318" stroke-width="2.5" stroke-linecap="round" d="M 80.3,203.3 C 80.3,214.4 80,225.6 80,236.7" fill="none"/><path stroke="#2a2318" stroke-width="2.5" stroke-linecap="round" d="M 80,236.7 C 80,247.8 80,264.4 80,270" fill="none"/><path stroke="#2a2318" stroke-width="1.3" stroke-linecap="round" d="M 80 70 C 80,75.5 80,92.2 80,103.3 C 80,114.4 79.8,125.6 79.9,136.7 C 80,147.8 80.5,158.9 80.4,170 C 80.3,181.1 79.3,192.2 79.3,203.3 C 79.3,214.4 80.6,225.6 80.7,236.7 C 80.8,247.8 80.1,264.4 80,270" fill="none" stroke-opacity="0.35"/></g><g><path stroke="#2a2318" stroke-width="2.8" stroke-linecap="round" d="M 120 70 C 120.1,75.5 120.4,92.2 120.4,103.3 C 120.4,114.4 119.9,125.6 119.8,136.7 C 119.7,147.8 120,158.9 120,170 C 120,181.1 120.1,192.2 120.1,203.3 C 120.1,214.4 120.1,225.6 120.1,236.7 C 120.1,247.8 120,264.4 120,270" fill="none" stroke-opacity="0.12"/><path stroke="#2a2318" stroke-width="2" stroke-linecap="round" d="M 120,70 C 119.9,75.5 119.1,92.2 119.2,103.3" fill="none"/><path stroke="#2a2318" stroke-width="2" stroke-linecap="round" d="M 119.2,103.3 C 119.3,114.4 120.7,125.6 120.8,136.7" fill="none"/><path stroke="#2a2318" stroke-width="1.9" stroke-linecap="round" d="M 120.8,136.7 C 120.9,147.8 119.7,158.9 119.6,170" fill="none"/><path stroke="#2a2318" stroke-width="1.9" stroke-linecap="round" d="M 119.6,170 C 119.5,181.1 119.9,192.2 120,203.3" fill="none"/><path stroke="#2a2318" stroke-width="2" stroke-linecap="round" d="M 120,203.3 C 120.1,214.4 120.2,225.6 120.2,236.7" fill="none"/><path stroke="#2a2318" stroke-width="2.1" stroke-linecap="round" d="M 120.2,236.7 C 120.2,247.8 120,264.4 120,270" fill="none"/><path stroke="#2a2318" stroke-width="1" stroke-linecap="round" d="M 120 70 C 120,75.5 120.4,92.2 120.3,103.3 C 120.2,114.4 119.5,125.6 119.5,136.7 C 119.5,147.8 120.3,158.9 120.4,170 C 120.5,181.1 120,192.2 119.9,203.3 C 119.8,214.4 119.7,225.6 119.7,236.7 C 119.7,247.8 120,264.4 120,270" fill="none" stroke-opacity="0.35"/></g><g><path stroke="#2a2318" stroke-width="2.1" stroke-linecap="round" d="M 160 70 C 159.9,75.5 159.7,92.2 159.7,103.3 C 159.7,114.4 160.2,125.6 160.2,136.7 C 160.2,147.8 159.9,158.9 159.9,170 C 159.9,181.1 159.9,192.2 159.9,203.3 C 159.9,214.4 160.1,225.6 160.1,236.7 C 160.1,247.8 160,264.4 160,270" fill="none" stroke-opacity="0.12"/><path stroke="#2a2318" stroke-width="1.5" stroke-linecap="round" d="M 160,70 C 159.9,75.5 159.5,92.2 159.5,103.3" fill="none"/><path stroke="#2a2318" stroke-width="1.6" stroke-linecap="round" d="M 159.5,103.3 C 159.5,114.4 159.9,125.6 160,136.7" fill="none"/><path stroke="#2a2318" stroke-width="1.6" stroke-linecap="round" d="M 160,136.7 C 160.1,147.8 159.9,158.9 160,170" fill="none"/><path stroke="#2a2318" stroke-width="1.5" stroke-linecap="round" d="M 160,170 C 160.1,181.1 160.7,192.2 160.5,203.3" fill="none"/><path stroke="#2a2318" stroke-width="1.5" stroke-linecap="round" d="M 160.5,203.3 C 160.3,214.4 159.1,225.6 159,236.7" fill="none"/><path stroke="#2a2318" stroke-width="1.6" stroke-linecap="round" d="M 159,236.7 C 158.9,247.8 159.8,264.4 160,270" fill="none"/><path stroke="#2a2318" stroke-width="0.8" stroke-linecap="round" d="M 160 70 C 160,75.5 159.8,92.2 159.9,103.3 C 160,114.4 160.5,125.6 160.4,136.7 C 160.3,147.8 159.3,158.9 159.3,170 C 159.4,181.1 160.6,192.2 160.7,203.3 C 160.8,214.4 159.7,225.6 159.6,236.7 C 159.5,247.8 159.9,264.4 160,270" fill="none" stroke-opacity="0.35"/></g><text x="90" y="24" text-anchor="middle" dominant-baseline="auto" fill="#2a2318" font-family="Helvetica, Arial, sans-serif" font-size="14" font-weight="bold">E (bass)</text><circle cx="40" cy="52" r="8" fill="none" stroke="#2a2318" stroke-width="1.5"/><circle cx="80" cy="130" r="12" fill="#2a2318"/><text x="80" y="130" text-anchor="middle" dominant-baseline="middle" fill="#fdf8f0" font-family="Helvetica, Arial, sans-serif" font-size="11">2</text><circle cx="120" cy="130" r="12" fill="#2a2318"/><text x="120" y="130" text-anchor="middle" dominant-baseline="middle" fill="#fdf8f0" font-family="Helvetica, Arial, sans-serif" font-size="11">3</text><circle cx="160" cy="90" r="12" fill="#2a2318"/><text x="160" y="90" text-anchor="middle" dominant-baseline="middle" fill="#fdf8f0" font-family="Helvetica, Arial, sans-serif" font-size="11">1</text></svg>