<svg xmlns="http://www.w3.org/2000/svg" width="250" height="280"><rect x="0" y="0" width="250" height="280" fill="#1e1e1e"/><text x="125" y="22" text-anchor="middle" dominant-baseline="auto" fill="#eeeeee" font-family="Helvetica, Arial, sans-serif" font-size="14" font-weight="bold">C Major</text><rect x="30" y="50" width="200" height="4" fill="#cccccc"/><line x1="30" y1="90" x2="230" y2="90" stroke="#888888" stroke-width="1"/><line x1="30" y1="130" x2="230" y2="130" stroke="#888888" stroke-width="1"/><line x1="30" y1="170" x2="230" y2="170" stroke="#888888" stroke-width="1"/><line x1="30" y1="210" x2="230" y2="210" stroke="#888888" stroke-width="1"/><line x1="30" y1="250" x2="230" y2="250" stroke="#888888" stroke-width="1"/><line x1="30" y1="50" x2="30" y2="250" stroke="#cccccc" stroke-width="1.5"/><line x1="70" y1="50" x2="70" y2="250" stroke="#cccccc" stroke-width="1.5"/><line x1="110" y1="50" x2="110" y2="250" stroke="#cccccc" stroke-width="1.5"/><line x1="150" y1="50" x2="150" y2="250" stroke="#cccccc" stroke-width="1.5"/><line x1="190" y1="50" x2="190" y2="250" stroke="#cccccc" stroke-width="1.5"/><line x1="230" y1="50" x2="230" y2="250" stroke="#cccccc" stroke-width="1.5"/><text x="30" y="32" text-anchor="middle" dominant-baseline="middle" fill="#888888" font-family="Helvetica, Arial, sans-serif" font-size="13">×</text><circle cx="150" cy="32" r="8" fill="none" stroke="#cccccc" stroke-width="1.5"/><circle cx="230" cy="32" r="8" fill="none" stroke="#cccccc" stroke-width="1.5"/><circle cx="70" cy="150" r="12" fill="#cccccc"/><circle cx="110" cy="110" r="12" fill="#cccccc"/><circle cx="190" cy="70" r="12" fill="#cccccc"/></svg>