<svg xmlns="http://www.w3.org/2000/svg" width="260" height="300"><rect x="0" y="0" width="260" height="300" fill="#1a1a24"/><path stroke="#cccccc" stroke-width="4" stroke-linecap="round" d="M 40 72 C 106.7,71.8 173.3,70.9 240,72" fill="none"/><path stroke="#888888" stroke-width="1" stroke-linecap="round" d="M 40 110 C 106.7,111 173.3,110.3 240,110" fill="none"/><path stroke="#888888" stroke-width="1" stroke-linecap="round" d="M 40 150 C 106.7,150.5 173.3,150.9 240,150" fill="none"/><path stroke="#888888" stroke-width="1" stroke-linecap="round" d="M 40 190 C 106.7,190 173.3,191.3 240,190" fill="none"/><path stroke="#888888" stroke-width="1" stroke-linecap="round" d="M 40 230 C 106.7,229.5 173.3,231.4 240,230" fill="none"/><path stroke="#888888" stroke-width="1" stroke-linecap="round" d="M 40 270 C 106.7,269.3 173.3,271.1 240,270" fill="none"/><path stroke="#cccccc" stroke-width="1.5" stroke-linecap="round" d="M 40 70 C 40,136.7 39.6,203.3 40,270" fill="none"/><path stroke="#cccccc" stroke-width="1.5" stroke-linecap="round" d="M 80 70 C 78.7,136.7 79.9,203.3 80,270" fill="none"/><path stroke="#cccccc" stroke-width="1.5" stroke-linecap="round" d="M 120 70 C 120.5,136.7 119.6,203.3 120,270" fill="none"/><path stroke="#cccccc" stroke-width="1.5" stroke-linecap="round" d="M 160 70 C 161.2,136.7 159.4,203.3 160,270" fill="none"/><path stroke="#cccccc" stroke-width="1.5" stroke-linecap="round" d="M 200 70 C 199.5,136.7 201.3,203.3 200,270" fill="none"/><path stroke="#cccccc" stroke-width="1.5" stroke-linecap="round" d="M 240 70 C 239.8,136.7 240.5,203.3 240,270" fill="none"/><text x="130" y="24" text-anchor="middle" dominant-baseline="auto" fill="#eeeeee" font-family="Helvetica, Arial, sans-serif" font-size="14" font-weight="bold">F Major (barre)</text><rect x="40" y="78" width="200" height="24" rx="12" ry="12" fill="#cccccc"/><circle cx="40" cy="90" r="12" fill="#ff6b6b"/><text x="40" y="90" text-anchor="middle" dominant-baseline="middle" fill="#1e1e1e" font-family="Helvetica, Arial, sans-serif" font-size="11">1</text><circle cx="80" cy="170" r="12" fill="#cccccc"/><text x="80" y="170" text-anchor="middle" dominant-baseline="middle" fill="#1e1e1e" font-family="Helvetica, Arial, sans-serif" font-size="11">3</text><circle cx="120" cy="170" r="12" fill="#cccccc"/><text x="120" y="170" text-anchor="middle" dominant-baseline="middle" fill="#1e1e1e" font-family="Helvetica, Arial, sans-serif" font-size="11">4</text><circle cx="160" cy="130" r="12" fill="#cccccc"/><text x="160" y="130" text-anchor="middle" dominant-baseline="middle" fill="#1e1e1e" font-family="Helvetica, Arial, sans-serif" font-size="11">2</text><circle cx="200" cy="90" r="12" fill="#cccccc"/><text x="200" y="90" text-anchor="middle" dominant-baseline="middle" fill="#1e1e1e" font-family="Helvetica, Arial, sans-serif" font-size="11">1</text><circle cx="240" cy="90" r="12" fill="#ff6b6b"/><text x="240" y="90" text-anchor="middle" dominant-baseline="middle" fill="#1e1e1e" font-family="Helvetica, Arial, sans-serif" font-size="11">1</text></svg>