<svg xmlns="http://www.w3.org/2000/svg" width="250" height="280"><rect x="0" y="0" width="250" height="280" fill="#ffffff"/><rect x="30" y="50" width="200" height="4" fill="#333333"/><line x1="30" y1="90" x2="230" y2="90" stroke="#666666" stroke-width="1"/><line x1="30" y1="130" x2="230" y2="130" stroke="#666666" stroke-width="1"/><line x1="30" y1="170" x2="230" y2="170" stroke="#666666" stroke-width="1"/><line x1="30" y1="210" x2="230" y2="210" stroke="#666666" stroke-width="1"/><line x1="30" y1="250" x2="230" y2="250" stroke="#666666" stroke-width="1"/><line x1="30" y1="50" x2="30" y2="250" stroke="#333333" stroke-width="1.5"/><line x1="70" y1="50" x2="70" y2="250" stroke="#333333" stroke-width="1.5"/><line x1="110" y1="50" x2="110" y2="250" stroke="#333333" stroke-width="1.5"/><line x1="150" y1="50" x2="150" y2="250" stroke="#333333" stroke-width="1.5"/><line x1="190" y1="50" x2="190" y2="250" stroke="#333333" stroke-width="1.5"/><line x1="230" y1="50" x2="230" y2="250" stroke="#333333" stroke-width="1.5"/><text x="125" y="22" text-anchor="middle" dominant-baseline="auto" fill="#333333" font-family="Helvetica, Arial, sans-serif" font-size="14" font-weight="bold">F Major (barre)</text><rect x="30" y="58" width="200" height="24" rx="12" ry="12" fill="#333333"/><circle cx="30" cy="70" r="12" fill="#e63c3c"/><text x="30" y="70" text-anchor="middle" dominant-baseline="middle" fill="#ffffff" font-family="Helvetica, Arial, sans-serif" font-size="11">1</text><circle cx="70" cy="70" r="12" fill="#333333"/><text x="70" y="70" text-anchor="middle" dominant-baseline="middle" fill="#ffffff" font-family="Helvetica, Arial, sans-serif" font-size="11">1</text><circle cx="110" cy="70" r="12" fill="#333333"/><text x="110" y="70" text-anchor="middle" dominant-baseline="middle" fill="#ffffff" font-family="Helvetica, Arial, sans-serif" font-size="11">1</text><circle cx="150" cy="150" r="12" fill="#333333"/><text x="150" y="150" text-anchor="middle" dominant-baseline="middle" fill="#ffffff" font-family="Helvetica, Arial, sans-serif" font-size="11">3</text><circle cx="190" cy="150" r="12" fill="#333333"/><text x="190" y="150" text-anchor="middle" dominant-baseline="middle" fill="#ffffff" font-family="Helvetica, Arial, sans-serif" font-size="11">4</text><circle cx="230" cy="70" r="12" fill="#e63c3c"/><text x="230" y="70" text-anchor="middle" dominant-baseline="middle" fill="#ffffff" font-family="Helvetica, Arial, sans-serif" font-size="11">1</text></svg>