<svg xmlns="http://www.w3.org/2000/svg" width="260" height="280"><rect x="0" y="0" width="260" height="280" fill="#ffffff"/><rect x="40" y="50" width="200" height="4" fill="#333333"/><line x1="40" y1="90" x2="240" y2="90" stroke="#666666" stroke-width="1"/><line x1="40" y1="130" x2="240" y2="130" stroke="#666666" stroke-width="1"/><line x1="40" y1="170" x2="240" y2="170" stroke="#666666" stroke-width="1"/><line x1="40" y1="210" x2="240" y2="210" stroke="#666666" stroke-width="1"/><line x1="40" y1="250" x2="240" y2="250" stroke="#666666" stroke-width="1"/><line x1="40" y1="50" x2="40" y2="250" stroke="#333333" stroke-width="1.5"/><line x1="80" y1="50" x2="80" y2="250" stroke="#333333" stroke-width="1.5"/><line x1="120" y1="50" x2="120" y2="250" stroke="#333333" stroke-width="1.5"/><line x1="160" y1="50" x2="160" y2="250" stroke="#333333" stroke-width="1.5"/><line x1="200" y1="50" x2="200" y2="250" stroke="#333333" stroke-width="1.5"/><line x1="240" y1="50" x2="240" y2="250" stroke="#333333" stroke-width="1.5"/><text x="130" y="22" text-anchor="middle" dominant-baseline="auto" fill="#333333" font-family="Helvetica, Arial, sans-serif" font-size="14" font-weight="bold">C Major</text><text x="40" y="32" text-anchor="middle" dominant-baseline="middle" fill="#333333" font-family="Helvetica, Arial, sans-serif" font-size="13">×</text><circle cx="160" cy="32" r="8" fill="none" stroke="#333333" stroke-width="1.5"/><circle cx="240" cy="32" r="8" fill="none" stroke="#333333" stroke-width="1.5"/><circle cx="80" cy="150" r="12" fill="#333333"/><text x="80" y="150" text-anchor="middle" dominant-baseline="middle" fill="#ffffff" font-family="Helvetica, Arial, sans-serif" font-size="11">3</text><circle cx="120" cy="110" r="12" fill="#333333"/><text x="120" y="110" text-anchor="middle" dominant-baseline="middle" fill="#ffffff" font-family="Helvetica, Arial, sans-serif" font-size="11">2</text><circle cx="200" cy="70" r="12" fill="#333333"/><text x="200" y="70" text-anchor="middle" dominant-baseline="middle" fill="#ffffff" font-family="Helvetica, Arial, sans-serif" font-size="11">1</text></svg>