<svg xmlns="http://www.w3.org/2000/svg" width="260" height="280"><rect x="0" y="0" width="260" height="280" fill="#1e1e1e"/><rect x="40" y="50" width="200" height="4" fill="#cccccc"/><line x1="40" y1="90" x2="240" y2="90" stroke="#888888" stroke-width="1"/><line x1="40" y1="130" x2="240" y2="130" stroke="#888888" stroke-width="1"/><line x1="40" y1="170" x2="240" y2="170" stroke="#888888" stroke-width="1"/><line x1="40" y1="210" x2="240" y2="210" stroke="#888888" stroke-width="1"/><line x1="40" y1="250" x2="240" y2="250" stroke="#888888" stroke-width="1"/><line x1="40" y1="50" x2="40" y2="250" stroke="#cccccc" stroke-width="1.5"/><line x1="80" y1="50" x2="80" y2="250" stroke="#cccccc" stroke-width="1.5"/><line x1="120" y1="50" x2="120" y2="250" stroke="#cccccc" stroke-width="1.5"/><line x1="160" y1="50" x2="160" y2="250" stroke="#cccccc" stroke-width="1.5"/><line x1="200" y1="50" x2="200" y2="250" stroke="#cccccc" stroke-width="1.5"/><line x1="240" y1="50" x2="240" y2="250" stroke="#cccccc" stroke-width="1.5"/><text x="130" y="22" text-anchor="middle" dominant-baseline="auto" fill="#eeeeee" font-family="Helvetica, Arial, sans-serif" font-size="14" font-weight="bold">C Major</text><text x="40" y="32" text-anchor="middle" dominant-baseline="middle" fill="#888888" font-family="Helvetica, Arial, sans-serif" font-size="13">×</text><circle cx="160" cy="32" r="8" fill="none" stroke="#cccccc" stroke-width="1.5"/><circle cx="240" cy="32" r="8" fill="none" stroke="#cccccc" stroke-width="1.5"/><circle cx="80" cy="150" r="12" fill="#cccccc"/><circle cx="120" cy="110" r="12" fill="#cccccc"/><circle cx="200" cy="70" r="12" fill="#cccccc"/></svg>