<svg xmlns="http://www.w3.org/2000/svg" width="186" height="278"><rect x="0" y="0" width="186" height="278" fill="#ffffff"/><text x="93" y="22" text-anchor="middle" dominant-baseline="auto" fill="#333333" font-family="Helvetica, Arial, sans-serif" font-size="14" font-weight="bold">A Minor Pentatonic</text><line x1="30" y1="50" x2="166" y2="50" stroke="#333333" stroke-width="1.5"/><line x1="30" y1="84" x2="166" y2="84" stroke="#333333" stroke-width="1.5"/><line x1="30" y1="118" x2="166" y2="118" stroke="#333333" stroke-width="1.5"/><line x1="30" y1="152" x2="166" y2="152" stroke="#333333" stroke-width="1.5"/><line x1="30" y1="186" x2="166" y2="186" stroke="#333333" stroke-width="1.5"/><line x1="30" y1="220" x2="166" y2="220" stroke="#333333" stroke-width="1.5"/><line x1="30" y1="50" x2="30" y2="220" stroke="#666666" stroke-width="1"/><line x1="64" y1="50" x2="64" y2="220" stroke="#666666" stroke-width="1"/><line x1="98" y1="50" x2="98" y2="220" stroke="#666666" stroke-width="1"/><line x1="132" y1="50" x2="132" y2="220" stroke="#666666" stroke-width="1"/><line x1="166" y1="50" x2="166" y2="220" stroke="#666666" stroke-width="1"/><text x="30" y="38" text-anchor="middle" dominant-baseline="auto" fill="#555555" font-family="Helvetica, Arial, sans-serif" font-size="11">5</text><text x="64" y="38" text-anchor="middle" dominant-baseline="auto" fill="#555555" font-family="Helvetica, Arial, sans-serif" font-size="11">6</text><text x="98" y="38" text-anchor="middle" dominant-baseline="auto" fill="#555555" font-family="Helvetica, Arial, sans-serif" font-size="11">7</text><text x="132" y="38" text-anchor="middle" dominant-baseline="auto" fill="#555555" font-family="Helvetica, Arial, sans-serif" font-size="11">8</text><text x="166" y="38" text-anchor="middle" dominant-baseline="auto" fill="#555555" font-family="Helvetica, Arial, sans-serif" font-size="11">9</text><text x="20" y="50" text-anchor="end" dominant-baseline="middle" fill="#555555" font-family="Helvetica, Arial, sans-serif" font-size="11">E</text><text x="20" y="84" text-anchor="end" dominant-baseline="middle" fill="#555555" font-family="Helvetica, Arial, sans-serif" font-size="11">A</text><text x="20" y="118" text-anchor="end" dominant-baseline="middle" fill="#555555" font-family="Helvetica, Arial, sans-serif" font-size="11">D</text><text x="20" y="152" text-anchor="end" dominant-baseline="middle" fill="#555555" font-family="Helvetica, Arial, sans-serif" font-size="11">G</text><text x="20" y="186" text-anchor="end" dominant-baseline="middle" fill="#555555" font-family="Helvetica, Arial, sans-serif" font-size="11">B</text><text x="20" y="220" text-anchor="end" dominant-baseline="middle" fill="#555555" font-family="Helvetica, Arial, sans-serif" font-size="11">E</text><circle cx="30" cy="234" r="4" fill="#cccccc"/><circle cx="98" cy="234" r="4" fill="#cccccc"/><circle cx="166" cy="234" r="4" fill="#cccccc"/><circle cx="30" cy="50" r="10" fill="#e63c3c"/><text x="30" y="50" text-anchor="middle" dominant-baseline="middle" fill="#ffffff" font-family="Helvetica, Arial, sans-serif" font-size="11">R</text><circle cx="132" cy="50" r="10" fill="#333333"/><circle cx="64" cy="84" r="10" fill="#333333"/><circle cx="98" cy="118" r="10" fill="#333333"/><circle cx="30" cy="152" r="10" fill="#333333"/><circle cx="166" cy="152" r="10" fill="#333333"/><circle cx="98" cy="186" r="10" fill="#333333"/><circle cx="30" cy="220" r="10" fill="#e63c3c"/><text x="30" y="220" text-anchor="middle" dominant-baseline="middle" fill="#ffffff" font-family="Helvetica, Arial, sans-serif" font-size="11">R</text><circle cx="132" cy="220" r="10" fill="#333333"/></svg>