<svg xmlns="http://www.w3.org/2000/svg" width="270" height="290"><rect x="0" y="0" width="270" height="290" fill="#1a1a24"/><g><path stroke="#888888" stroke-width="1" stroke-linecap="round" d="M 40 70 C 45.5,69.6 62.2,67.4 73.3,67.7 C 84.4,68 95.6,71.4 106.7,71.7 C 117.8,72 128.9,69.6 140,69.3 C 151.1,69 162.2,69.9 173.3,70 C 184.4,70.1 195.6,69.7 206.7,69.7 C 217.8,69.7 234.4,70 240,70" fill="none"/><path stroke="#888888" stroke-width="0.5" stroke-linecap="round" d="M 40 70 C 45.5,70.1 62.2,70.5 73.3,70.4 C 84.4,70.3 95.6,69.6 106.7,69.5 C 117.8,69.4 128.9,69.8 140,70 C 151.1,70.2 162.2,71 173.3,70.8 C 184.4,70.6 195.6,68.9 206.7,68.8 C 217.8,68.7 234.4,69.8 240,70" fill="none" stroke-opacity="0.35"/></g><g><path stroke="#888888" stroke-width="1" stroke-linecap="round" d="M 40 110 C 45.5,109.6 62.2,107.2 73.3,107.6 C 84.4,108 95.6,112.1 106.7,112.3 C 117.8,112.5 128.9,108.9 140,108.6 C 151.1,108.3 162.2,110 173.3,110.3 C 184.4,110.5 195.6,110.1 206.7,110.1 C 217.8,110 234.4,110 240,110" fill="none"/><path stroke="#888888" stroke-width="0.5" stroke-linecap="round" d="M 40 110 C 45.5,110 62.2,109.8 73.3,109.8 C 84.4,109.8 95.6,109.8 106.7,109.8 C 117.8,109.8 128.9,109.9 140,110 C 151.1,110.1 162.2,110.8 173.3,110.6 C 184.4,110.4 195.6,108.9 206.7,108.8 C 217.8,108.7 234.4,109.8 240,110" fill="none" stroke-opacity="0.35"/></g><g><path stroke="#888888" stroke-width="1" stroke-linecap="round" d="M 40 150 C 45.5,149.7 62.2,147.7 73.3,148.1 C 84.4,148.5 95.6,152.3 106.7,152.3 C 117.8,152.3 128.9,148.5 140,148.2 C 151.1,147.9 162.2,150.4 173.3,150.7 C 184.4,151 195.6,150.3 206.7,150.2 C 217.8,150.1 234.4,150 240,150" fill="none"/><path stroke="#888888" stroke-width="0.5" stroke-linecap="round" d="M 40 150 C 45.5,149.8 62.2,149.1 73.3,149.1 C 84.4,149.1 95.6,150 106.7,150.2 C 117.8,150.3 128.9,150 140,150 C 151.1,150 162.2,150.5 173.3,150.3 C 184.4,150.2 195.6,149.2 206.7,149.1 C 217.8,149 234.4,149.8 240,150" fill="none" stroke-opacity="0.35"/></g><g><path stroke="#888888" stroke-width="1" stroke-linecap="round" d="M 40 190 C 45.5,189.8 62.2,188.8 73.3,189.1 C 84.4,189.4 95.6,192 106.7,191.8 C 117.8,191.7 128.9,188.3 140,188.2 C 151.1,188.1 162.2,190.7 173.3,191 C 184.4,191.3 195.6,190.4 206.7,190.2 C 217.8,190 234.4,190 240,190" fill="none"/><path stroke="#888888" stroke-width="0.5" stroke-linecap="round" d="M 40 190 C 45.5,189.8 62.2,188.6 73.3,188.7 C 84.4,188.8 95.6,190.5 106.7,190.7 C 117.8,190.9 128.9,190 140,189.9 C 151.1,189.8 162.2,190.1 173.3,190 C 184.4,189.9 195.6,189.5 206.7,189.5 C 217.8,189.5 234.4,189.9 240,190" fill="none" stroke-opacity="0.35"/></g><g><path stroke="#888888" stroke-width="1" stroke-linecap="round" d="M 40 230 C 45.5,230.1 62.2,230.2 73.3,230.3 C 84.4,230.4 95.6,231 106.7,230.7 C 117.8,230.4 128.9,228.6 140,228.7 C 151.1,228.8 162.2,230.8 173.3,231 C 184.4,231.2 195.6,230.3 206.7,230.1 C 217.8,229.9 234.4,230 240,230" fill="none"/><path stroke="#888888" stroke-width="0.5" stroke-linecap="round" d="M 40 230 C 45.5,229.8 62.2,228.4 73.3,228.6 C 84.4,228.8 95.6,230.8 106.7,231 C 117.8,231.2 128.9,229.9 140,229.7 C 151.1,229.5 162.2,229.7 173.3,229.8 C 184.4,229.9 195.6,230.1 206.7,230.1 C 217.8,230.1 234.4,230 240,230" fill="none" stroke-opacity="0.35"/></g><g><path stroke="#888888" stroke-width="1" stroke-linecap="round" d="M 40 270 C 45.5,270.2 62.2,271.4 73.3,271.3 C 84.4,271.2 95.6,269.8 106.7,269.5 C 117.8,269.2 128.9,269.4 140,269.6 C 151.1,269.8 162.2,270.6 173.3,270.7 C 184.4,270.8 195.6,270 206.7,269.9 C 217.8,269.8 234.4,270 240,270" fill="none"/><path stroke="#888888" stroke-width="0.5" stroke-linecap="round" d="M 40 270 C 45.5,269.8 62.2,268.6 73.3,268.8 C 84.4,269 95.6,271 106.7,271.1 C 117.8,271.2 128.9,269.7 140,269.5 C 151.1,269.3 162.2,269.6 173.3,269.8 C 184.4,270 195.6,270.5 206.7,270.5 C 217.8,270.5 234.4,270.1 240,270" fill="none" stroke-opacity="0.35"/></g><g><path stroke="#cccccc" stroke-width="1.5" stroke-linecap="round" d="M 40 70 C 40.2,75.5 41.5,92.2 41.1,103.3 C 40.7,114.4 37.6,125.6 37.8,136.7 C 38,147.8 42.3,158.9 42.4,170 C 42.5,181.1 38.6,192.2 38.3,203.3 C 38,214.4 40.3,225.6 40.6,236.7 C 40.9,247.8 40.1,264.4 40,270" fill="none"/><path stroke="#cccccc" stroke-width="0.8" stroke-linecap="round" d="M 40 70 C 40.1,75.5 40.7,92.2 40.7,103.3 C 40.7,114.4 40,125.6 39.8,136.7 C 39.6,147.8 39.6,158.9 39.7,170 C 39.8,181.1 40.2,192.2 40.3,203.3 C 40.4,214.4 40.3,225.6 40.2,236.7 C 40.2,247.8 40,264.4 40,270" fill="none" stroke-opacity="0.35"/></g><g><path stroke="#cccccc" stroke-width="1.5" stroke-linecap="round" d="M 80 70 C 80.3,75.5 82.1,92.2 81.9,103.3 C 81.8,114.4 79.4,125.6 79.1,136.7 C 78.8,147.8 79.5,158.9 79.8,170 C 80,181.1 80.6,192.2 80.6,203.3 C 80.6,214.4 80.1,225.6 80,236.7 C 79.9,247.8 80,264.4 80,270" fill="none"/><path stroke="#cccccc" stroke-width="0.8" stroke-linecap="round" d="M 80 70 C 80,75.5 80,92.2 80,103.3 C 80,114.4 79.7,125.6 79.8,136.7 C 79.9,147.8 81,158.9 80.8,170 C 80.6,181.1 78.6,192.2 78.7,203.3 C 78.8,214.4 81.2,225.6 81.4,236.7 C 81.6,247.8 80.2,264.4 80,270" fill="none" stroke-opacity="0.35"/></g><g><path stroke="#cccccc" stroke-width="1.5" stroke-linecap="round" d="M 120 70 C 119.7,75.5 118,92.2 118.3,103.3 C 118.6,114.4 121.5,125.6 121.7,136.7 C 121.9,147.8 119.5,158.9 119.2,170 C 118.9,181.1 119.7,192.2 119.9,203.3 C 120.1,214.4 120.3,225.6 120.3,236.7 C 120.3,247.8 120,264.4 120,270" fill="none"/><path stroke="#cccccc" stroke-width="0.8" stroke-linecap="round" d="M 120 70 C 120.1,75.5 120.8,92.2 120.6,103.3 C 120.4,114.4 119.1,125.6 119.1,136.7 C 119.1,147.8 120.7,158.9 120.8,170 C 120.9,181.1 120.1,192.2 119.9,203.3 C 119.7,214.4 119.5,225.6 119.5,236.7 C 119.5,247.8 119.9,264.4 120,270" fill="none" stroke-opacity="0.35"/></g><g><path stroke="#cccccc" stroke-width="1.5" stroke-linecap="round" d="M 160 70 C 159.8,75.5 159.1,92.2 159.1,103.3 C 159.1,114.4 160,125.6 160.1,136.7 C 160.2,147.8 159.8,158.9 159.9,170 C 160,181.1 161.2,192.2 160.9,203.3 C 160.6,214.4 158.3,225.6 158.1,236.7 C 157.9,247.8 159.7,264.4 160,270" fill="none"/><path stroke="#cccccc" stroke-width="0.8" stroke-linecap="round" d="M 160 70 C 160,75.5 159.8,92.2 159.9,103.3 C 160,114.4 161,125.6 160.8,136.7 C 160.6,147.8 158.6,158.9 158.7,170 C 158.8,181.1 161.2,192.2 161.3,203.3 C 161.4,214.4 159.4,225.6 159.2,236.7 C 159,247.8 159.9,264.4 160,270" fill="none" stroke-opacity="0.35"/></g><g><path stroke="#cccccc" stroke-width="1.5" stroke-linecap="round" d="M 200 70 C 200.1,75.5 200.5,92.2 200.6,103.3 C 200.7,114.4 200.7,125.6 200.4,136.7 C 200.1,147.8 198.8,158.9 198.9,170 C 199,181.1 200.9,192.2 201.1,203.3 C 201.3,214.4 200.1,225.6 199.9,236.7 C 199.7,247.8 200,264.4 200,270" fill="none"/><path stroke="#cccccc" stroke-width="0.8" stroke-linecap="round" d="M 200 70 C 199.8,75.5 198.4,92.2 198.6,103.3 C 198.8,114.4 200.9,125.6 201.1,136.7 C 201.3,147.8 199.8,158.9 199.6,170 C 199.4,181.1 199.7,192.2 199.8,203.3 C 199.9,214.4 200.2,225.6 200.2,236.7 C 200.2,247.8 200,264.4 200,270" fill="none" stroke-opacity="0.35"/></g><g><path stroke="#cccccc" stroke-width="1.5" stroke-linecap="round" d="M 240 70 C 240,75.5 239.8,92.2 239.8,103.3 C 239.8,114.4 239.6,125.6 239.8,136.7 C 240.1,147.8 241.7,158.9 241.3,170 C 241,181.1 237.5,192.2 237.7,203.3 C 237.9,214.4 242,225.6 242.4,236.7 C 242.8,247.8 240.4,264.4 240,270" fill="none"/><path stroke="#cccccc" stroke-width="0.8" stroke-linecap="round" d="M 240 70 C 240.1,75.5 240.7,92.2 240.5,103.3 C 240.3,114.4 238.9,125.6 239,136.7 C 239.1,147.8 240.7,158.9 240.8,170 C 240.9,181.1 240,192.2 239.8,203.3 C 239.6,214.4 239.8,225.6 239.8,236.7 C 239.8,247.8 240,264.4 240,270" fill="none" stroke-opacity="0.35"/></g><text x="135" y="24" text-anchor="middle" dominant-baseline="auto" fill="#eeeeee" font-family="Helvetica, Arial, sans-serif" font-size="14" font-weight="bold">A Minor Pentatonic</text><text x="40" y="58" text-anchor="middle" dominant-baseline="auto" fill="#aaaaaa" font-family="Helvetica, Arial, sans-serif" font-size="11">E</text><text x="80" y="58" text-anchor="middle" dominant-baseline="auto" fill="#aaaaaa" font-family="Helvetica, Arial, sans-serif" font-size="11">A</text><text x="120" y="58" text-anchor="middle" dominant-baseline="auto" fill="#aaaaaa" font-family="Helvetica, Arial, sans-serif" font-size="11">D</text><text x="160" y="58" text-anchor="middle" dominant-baseline="auto" fill="#aaaaaa" font-family="Helvetica, Arial, sans-serif" font-size="11">G</text><text x="200" y="58" text-anchor="middle" dominant-baseline="auto" fill="#aaaaaa" font-family="Helvetica, Arial, sans-serif" font-size="11">B</text><text x="240" y="58" text-anchor="middle" dominant-baseline="auto" fill="#aaaaaa" font-family="Helvetica, Arial, sans-serif" font-size="11">E</text><text x="22" y="90" text-anchor="end" dominant-baseline="middle" fill="#aaaaaa" font-family="Helvetica, Arial, sans-serif" font-size="11">5</text><text x="22" y="130" text-anchor="end" dominant-baseline="middle" fill="#aaaaaa" font-family="Helvetica, Arial, sans-serif" font-size="11">6</text><text x="22" y="170" text-anchor="end" dominant-baseline="middle" fill="#aaaaaa" font-family="Helvetica, Arial, sans-serif" font-size="11">7</text><text x="22" y="210" text-anchor="end" dominant-baseline="middle" fill="#aaaaaa" font-family="Helvetica, Arial, sans-serif" font-size="11">8</text><text x="22" y="250" text-anchor="end" dominant-baseline="middle" fill="#aaaaaa" font-family="Helvetica, Arial, sans-serif" font-size="11">9</text><circle cx="254" cy="90" r="4" fill="#444444"/><circle cx="254" cy="170" r="4" fill="#444444"/><circle cx="254" cy="250" r="4" fill="#444444"/><circle cx="40" cy="90" r="12" fill="#ff6b6b"/><text x="40" y="90" text-anchor="middle" dominant-baseline="middle" fill="#1e1e1e" font-family="Helvetica, Arial, sans-serif" font-size="11">R</text><circle cx="40" cy="210" r="12" fill="#cccccc"/><circle cx="80" cy="90" r="12" fill="#cccccc"/><circle cx="80" cy="210" r="12" fill="#cccccc"/><circle cx="120" cy="90" r="12" fill="#cccccc"/><circle cx="120" cy="170" r="12" fill="#cccccc"/><circle cx="160" cy="90" r="12" fill="#cccccc"/><circle cx="160" cy="170" r="12" fill="#cccccc"/><circle cx="200" cy="90" r="12" fill="#cccccc"/><circle cx="200" cy="170" r="12" fill="#cccccc"/><circle cx="240" cy="90" r="12" fill="#ff6b6b"/><text x="240" y="90" text-anchor="middle" dominant-baseline="middle" fill="#1e1e1e" font-family="Helvetica, Arial, sans-serif" font-size="11">R</text><circle cx="240" cy="210" r="12" fill="#cccccc"/></svg>