<svg xmlns="http://www.w3.org/2000/svg" width="270" height="290"><rect x="0" y="0" width="270" height="290" fill="#1a1a24"/><path stroke="#888888" stroke-width="1" stroke-linecap="round" d="M 40 70 C 106.7,71.2 173.3,69.5 240,70" fill="none"/><path stroke="#888888" stroke-width="1" stroke-linecap="round" d="M 40 110 C 106.7,111 173.3,110.3 240,110" fill="none"/><path stroke="#888888" stroke-width="1" stroke-linecap="round" d="M 40 150 C 106.7,150.5 173.3,150.9 240,150" fill="none"/><path stroke="#888888" stroke-width="1" stroke-linecap="round" d="M 40 190 C 106.7,190 173.3,191.3 240,190" fill="none"/><path stroke="#888888" stroke-width="1" stroke-linecap="round" d="M 40 230 C 106.7,229.5 173.3,231.4 240,230" fill="none"/><path stroke="#888888" stroke-width="1" stroke-linecap="round" d="M 40 270 C 106.7,269.3 173.3,271.1 240,270" fill="none"/><path stroke="#cccccc" stroke-width="1.5" stroke-linecap="round" d="M 40 70 C 40,136.7 39.6,203.3 40,270" fill="none"/><path stroke="#cccccc" stroke-width="1.5" stroke-linecap="round" d="M 80 70 C 78.7,136.7 79.9,203.3 80,270" fill="none"/><path stroke="#cccccc" stroke-width="1.5" stroke-linecap="round" d="M 120 70 C 120.5,136.7 119.6,203.3 120,270" fill="none"/><path stroke="#cccccc" stroke-width="1.5" stroke-linecap="round" d="M 160 70 C 161.2,136.7 159.4,203.3 160,270" fill="none"/><path stroke="#cccccc" stroke-width="1.5" stroke-linecap="round" d="M 200 70 C 199.5,136.7 201.3,203.3 200,270" fill="none"/><path stroke="#cccccc" stroke-width="1.5" stroke-linecap="round" d="M 240 70 C 239.8,136.7 240.5,203.3 240,270" fill="none"/><text x="135" y="24" text-anchor="middle" dominant-baseline="auto" fill="#eeeeee" font-family="Helvetica, Arial, sans-serif" font-size="14" font-weight="bold">A Minor Pentatonic</text><text x="40" y="58" text-anchor="middle" dominant-baseline="auto" fill="#aaaaaa" font-family="Helvetica, Arial, sans-serif" font-size="11">E</text><text x="80" y="58" text-anchor="middle" dominant-baseline="auto" fill="#aaaaaa" font-family="Helvetica, Arial, sans-serif" font-size="11">A</text><text x="120" y="58" text-anchor="middle" dominant-baseline="auto" fill="#aaaaaa" font-family="Helvetica, Arial, sans-serif" font-size="11">D</text><text x="160" y="58" text-anchor="middle" dominant-baseline="auto" fill="#aaaaaa" font-family="Helvetica, Arial, sans-serif" font-size="11">G</text><text x="200" y="58" text-anchor="middle" dominant-baseline="auto" fill="#aaaaaa" font-family="Helvetica, Arial, sans-serif" font-size="11">B</text><text x="240" y="58" text-anchor="middle" dominant-baseline="auto" fill="#aaaaaa" font-family="Helvetica, Arial, sans-serif" font-size="11">E</text><text x="22" y="90" text-anchor="end" dominant-baseline="middle" fill="#aaaaaa" font-family="Helvetica, Arial, sans-serif" font-size="11">5</text><text x="22" y="130" text-anchor="end" dominant-baseline="middle" fill="#aaaaaa" font-family="Helvetica, Arial, sans-serif" font-size="11">6</text><text x="22" y="170" text-anchor="end" dominant-baseline="middle" fill="#aaaaaa" font-family="Helvetica, Arial, sans-serif" font-size="11">7</text><text x="22" y="210" text-anchor="end" dominant-baseline="middle" fill="#aaaaaa" font-family="Helvetica, Arial, sans-serif" font-size="11">8</text><text x="22" y="250" text-anchor="end" dominant-baseline="middle" fill="#aaaaaa" font-family="Helvetica, Arial, sans-serif" font-size="11">9</text><circle cx="254" cy="90" r="4" fill="#444444"/><circle cx="254" cy="170" r="4" fill="#444444"/><circle cx="254" cy="250" r="4" fill="#444444"/><circle cx="40" cy="90" r="12" fill="#ff6b6b"/><text x="40" y="90" text-anchor="middle" dominant-baseline="middle" fill="#1e1e1e" font-family="Helvetica, Arial, sans-serif" font-size="11">R</text><circle cx="40" cy="210" r="12" fill="#cccccc"/><circle cx="80" cy="90" r="12" fill="#cccccc"/><circle cx="80" cy="210" r="12" fill="#cccccc"/><circle cx="120" cy="90" r="12" fill="#cccccc"/><circle cx="120" cy="170" r="12" fill="#cccccc"/><circle cx="160" cy="90" r="12" fill="#cccccc"/><circle cx="160" cy="170" r="12" fill="#cccccc"/><circle cx="200" cy="90" r="12" fill="#cccccc"/><circle cx="200" cy="170" r="12" fill="#cccccc"/><circle cx="240" cy="90" r="12" fill="#ff6b6b"/><text x="240" y="90" text-anchor="middle" dominant-baseline="middle" fill="#1e1e1e" font-family="Helvetica, Arial, sans-serif" font-size="11">R</text><circle cx="240" cy="210" r="12" fill="#cccccc"/></svg>