<svg xmlns="http://www.w3.org/2000/svg" width="270" height="270"><rect x="0" y="0" width="270" height="270" fill="#ffffff"/><line x1="40" y1="50" x2="240" y2="50" stroke="#666666" stroke-width="1"/><line x1="40" y1="90" x2="240" y2="90" stroke="#666666" stroke-width="1"/><line x1="40" y1="130" x2="240" y2="130" stroke="#666666" stroke-width="1"/><line x1="40" y1="170" x2="240" y2="170" stroke="#666666" stroke-width="1"/><line x1="40" y1="210" x2="240" y2="210" stroke="#666666" stroke-width="1"/><line x1="40" y1="250" x2="240" y2="250" stroke="#666666" stroke-width="1"/><line x1="40" y1="50" x2="40" y2="250" stroke="#333333" stroke-width="1.5"/><line x1="80" y1="50" x2="80" y2="250" stroke="#333333" stroke-width="1.5"/><line x1="120" y1="50" x2="120" y2="250" stroke="#333333" stroke-width="1.5"/><line x1="160" y1="50" x2="160" y2="250" stroke="#333333" stroke-width="1.5"/><line x1="200" y1="50" x2="200" y2="250" stroke="#333333" stroke-width="1.5"/><line x1="240" y1="50" x2="240" y2="250" stroke="#333333" stroke-width="1.5"/><text x="135" y="22" text-anchor="middle" dominant-baseline="auto" fill="#333333" font-family="Helvetica, Arial, sans-serif" font-size="14" font-weight="bold">A Minor Pentatonic</text><text x="40" y="38" text-anchor="middle" dominant-baseline="auto" fill="#555555" font-family="Helvetica, Arial, sans-serif" font-size="11">E</text><text x="80" y="38" text-anchor="middle" dominant-baseline="auto" fill="#555555" font-family="Helvetica, Arial, sans-serif" font-size="11">A</text><text x="120" y="38" text-anchor="middle" dominant-baseline="auto" fill="#555555" font-family="Helvetica, Arial, sans-serif" font-size="11">D</text><text x="160" y="38" text-anchor="middle" dominant-baseline="auto" fill="#555555" font-family="Helvetica, Arial, sans-serif" font-size="11">G</text><text x="200" y="38" text-anchor="middle" dominant-baseline="auto" fill="#555555" font-family="Helvetica, Arial, sans-serif" font-size="11">B</text><text x="240" y="38" text-anchor="middle" dominant-baseline="auto" fill="#555555" font-family="Helvetica, Arial, sans-serif" font-size="11">E</text><text x="32" y="70" text-anchor="end" dominant-baseline="middle" fill="#555555" font-family="Helvetica, Arial, sans-serif" font-size="11">5</text><text x="32" y="110" text-anchor="end" dominant-baseline="middle" fill="#555555" font-family="Helvetica, Arial, sans-serif" font-size="11">6</text><text x="32" y="150" text-anchor="end" dominant-baseline="middle" fill="#555555" font-family="Helvetica, Arial, sans-serif" font-size="11">7</text><text x="32" y="190" text-anchor="end" dominant-baseline="middle" fill="#555555" font-family="Helvetica, Arial, sans-serif" font-size="11">8</text><text x="32" y="230" text-anchor="end" dominant-baseline="middle" fill="#555555" font-family="Helvetica, Arial, sans-serif" font-size="11">9</text><circle cx="254" cy="70" r="4" fill="#cccccc"/><circle cx="254" cy="150" r="4" fill="#cccccc"/><circle cx="254" cy="230" r="4" fill="#cccccc"/><circle cx="40" cy="70" r="12" fill="#e63c3c"/><text x="40" y="70" text-anchor="middle" dominant-baseline="middle" fill="#ffffff" font-family="Helvetica, Arial, sans-serif" font-size="11">R</text><circle cx="40" cy="190" r="12" fill="#333333"/><circle cx="80" cy="110" r="12" fill="#333333"/><circle cx="120" cy="150" r="12" fill="#333333"/><circle cx="160" cy="70" r="12" fill="#333333"/><circle cx="160" cy="230" r="12" fill="#333333"/><circle cx="200" cy="150" r="12" fill="#333333"/><circle cx="240" cy="70" r="12" fill="#e63c3c"/><text x="240" y="70" text-anchor="middle" dominant-baseline="middle" fill="#ffffff" font-family="Helvetica, Arial, sans-serif" font-size="11">R</text><circle cx="240" cy="190" r="12" fill="#333333"/></svg>